<svg version="1.0" xmlns="http://www.w3.org/2000/svg" width="126" height="126" viewBox="0 0 126 126" preserveAspectRatio="xMidYMid meet">
 <g fill="#fdfcfd">
  <path d="M0.1 63 l0 -62.9 62.9 0 62.9 0 0 62.9 0 62.9 -62.9 0 -62.9 0 0 -62.9z"/>
 </g>
 <g fill="#e6d9e2">
  <path d="M49.1 124.4 c-8.6 -1.8 -19.3 -7 -26.2 -12.7 -6.8 -5.5 -14.9 -16 -14.9 -19.2 0 -1.3 -0.6 -2.5 -1.4 -2.8 -1.7 -0.7 -5.1 -9.6 -6 -15.9 -0.6 -4 -0.5 -4.8 0.8 -4.8 0.9 0 1.6 -0.8 1.7 -1.7 0 -1 0.9 2 1.9 6.7 2.2 10.2 4 14.6 9.1 22.1 7.8 11.6 22.1 21.4 34.6 23.9 10.4 2.1 11.8 2.5 12.1 4.3 0.4 2.1 -2.5 2.1 -11.7 0.1z"/>
  <path d="M65 124.6 c0 -2.1 0.8 -2.4 9.7 -4.1 22.5 -4.3 40.8 -22.1 45.8 -44.7 1.2 -5.3 2.2 -7.8 3.1 -7.8 2.4 0 2.6 2.3 1 9.4 -5.4 23 -25.1 42.2 -48.5 47.2 -8.5 1.8 -11.1 1.8 -11.1 0z"/>
  <path d="M51.5 117.6 c-1.9 -1.5 -1.8 -1.5 1.5 -1.7 2.7 -0.1 3 -0.3 1 -0.6 -3.1 -0.5 -4.9 -2.8 -4.3 -5.3 0.7 -2.5 2.3 -3 6.8 -2 4.4 1 5.4 2.2 4.7 5.5 -0.8 4.4 -6.3 6.7 -9.7 4.1z m6.5 -5.6 c0 -0.5 -1.2 -1 -2.7 -0.9 l-2.8 0.1 2.5 0.8 c1.4 0.4 2.6 0.8 2.8 0.9 0.1 0.1 0.2 -0.3 0.2 -0.9z"/>
  <path d="M67.7 118.4 c-0.4 -0.4 -0.7 -2.2 -0.7 -4 0 -1.8 -0.5 -3.4 -1.2 -3.6 -1.7 -0.6 0 -2.8 2.3 -2.8 1.5 0 1.9 0.8 2.1 3.5 0.1 1.9 0.2 4.3 0.2 5.2 0.1 1.7 -1.6 2.8 -2.7 1.7z"/>
  <path d="M79.5 115.9 c-0.8 -1.2 -0.8 -1.2 2 -2.7 1.7 -0.9 1.4 -1 -1.7 -0.5 -3 0.4 -3.8 0.2 -4.8 -1.6 -0.9 -1.7 -0.9 -2.6 0 -3.6 1.5 -1.8 7.7 -3.8 9 -3 1.7 1.1 2.9 5 2.3 7.4 -0.7 2.6 -5.9 5.6 -6.8 4z m2.5 -6.9 c1.2 -0.8 1.1 -1 -0.7 -1 -1.2 0 -2.5 0.5 -2.8 1 -0.8 1.3 1.5 1.3 3.5 0z"/>
  <path d="M40.4 113.6 c-0.3 -0.8 0 -2.4 0.6 -3.6 0.6 -1.1 0.8 -3 0.5 -4 -0.5 -1.6 -0.2 -2 1.9 -2 3 0 3.3 1.5 1.2 6.4 -1.7 4 -3.4 5.3 -4.2 3.2z"/>
  <path d="M51.9 103.4 c-8.1 -2.1 -17.9 -8.1 -17.9 -11 0 -0.8 -0.4 -1.3 -0.9 -1 -2 1.3 -10.8 -12.5 -9.4 -14.7 0.3 -0.5 0 -1.2 -0.6 -1.6 -1.8 -1.2 -3.1 -11.5 -2.1 -17.3 1.7 -10.9 4.8 -16.8 12.5 -24.4 8.7 -8.6 15 -11.4 27.1 -12.2 19.6 -1.1 36.1 10 42.3 28.6 2.6 7.6 2.6 9.2 0.2 9.2 -1.3 0 -2.1 -0.9 -2.5 -3.2 -0.8 -4.4 -5.9 -15 -7.9 -16.7 -1.5 -1.2 -1.7 -1.1 -1.7 0.9 0 2.8 -2.4 2.1 -2.8 -0.8 -0.2 -1.4 -1.1 -2.2 -2.3 -2.2 -1 0 -1.9 -0.4 -1.9 -1 0 -0.5 1.2 -1 2.6 -1 l2.7 0 -2.6 -2 c-3.9 -3.1 -12.7 -6.8 -17.7 -7.5 l-4.5 -0.7 5.8 5.7 c3.1 3.1 5.7 6.3 5.7 7.1 0 2.7 -3.5 1.3 -8.2 -3.3 l-4.8 -4.7 -4.9 4.8 c-4.3 4.3 -5.2 4.7 -8.7 4.4 -3.2 -0.3 -3.6 -0.5 -1.9 -1.3 1.1 -0.5 4.7 -3.5 8 -6.7 5.1 -4.9 5.7 -5.8 3.7 -5.8 -3.8 0 -14.5 4 -18.6 7.1 l-4 2.9 3.3 0 c1.9 0 3 0.4 2.6 1 -0.3 0.6 -1.7 1 -3.1 1 -1.9 0 -2.4 0.5 -2.4 2.4 0 3.7 -1.8 4.1 -2.2 0.5 -0.3 -3.1 -0.3 -3.1 -4.2 3 -2.2 3.4 -4.6 6.1 -5.3 6.1 -0.7 0 -1.3 0.5 -1.3 1 0 0.6 0.5 1 1 1 0.7 0 0.8 1.9 0.4 5.3 -0.5 4.3 -0.4 5 0.7 4 0.7 -0.7 2.1 -1.3 3.1 -1.3 1.1 0 1.8 -0.7 1.8 -1.8 0 -2.3 4 -6.2 6.3 -6.2 2.8 0 1.9 2.1 -2.8 6.4 -2.5 2.3 -4.5 4.6 -4.5 5.2 0 0.5 2 3 4.5 5.4 4.2 4.1 4.5 4.8 4.5 9.7 0 2.9 -0.4 5.3 -1 5.3 -0.5 0 -1 -1.3 -1 -3 0 -1.6 -0.4 -3 -1 -3 -0.5 0 -1 -0.6 -1 -1.3 0 -0.7 -2.3 -3.5 -5.1 -6.2 l-5.2 -5 0.6 4.5 c0.7 5.3 3.6 12.1 7.1 16.9 l2.6 3.5 0 -2.7 c0 -1.5 0.5 -2.7 1 -2.7 0.6 0 1 0.7 1 1.5 0 1.2 1.6 1.5 8.2 1.5 l8.2 0 4.8 4.7 4.8 4.7 4.8 -4.7 4.8 -4.7 7.4 0 7.5 0 -0.3 -7.2 -0.3 -7.3 4.5 -4.5 c2.5 -2.4 4.6 -5 4.6 -5.6 0 -0.7 -2 -2.9 -4.5 -5 -4.5 -3.6 -6 -7.4 -2.9 -7.4 2.1 0 5.3 4 5.4 6.8 0 1.7 0.6 2.2 2.4 2.2 1.4 0 2.8 0.5 3.1 1 0.3 0.6 1.8 1 3.2 1 2.6 0 2.6 0 2 6.6 -1.2 15.9 -14.8 32 -30.2 35.9 -4.9 1.2 -17.7 1.2 -22.6 -0.1z m4.6 -7.4 l-4.9 -5 -6.9 0 c-6.2 0 -6.8 0.2 -5.6 1.6 2.6 3.1 14.6 8.2 19.9 8.3 2.2 0.1 2 -0.3 -2.5 -4.9z m23.1 0.9 c3.4 -1.6 6.7 -3.6 7.4 -4.4 1.1 -1.3 0.4 -1.5 -5.7 -1.5 l-6.9 0 -4.9 5.1 -5 5.1 4.5 -0.7 c2.5 -0.4 7.3 -2 10.6 -3.6z m17.9 -18.1 c1.5 -3.3 3 -7.9 3.2 -10.2 l0.5 -4.1 -5.1 5 c-2.8 2.7 -5.1 5.5 -5.1 6.2 0 0.7 -0.4 1.3 -1 1.3 -0.5 0 -1 1.6 -1 3.5 0 1.9 0.5 3.5 1 3.5 0.6 0 1 1 1 2.2 0 2 0.1 2 1.9 0.4 1 -0.9 3.1 -4.4 4.6 -7.8z"/>
  <path d="M21.3 95.4 c-0.8 -2.2 1.8 -3.7 3.6 -2 0.7 0.8 1 1.9 0.7 2.5 -1 1.6 -3.6 1.3 -4.3 -0.5z"/>
  <path d="M100 95.1 c0 -2.6 1.7 -3.6 3.5 -2.1 1.8 1.5 0.8 4 -1.6 4 -1.2 0 -1.9 -0.7 -1.9 -1.9z"/>
  <path d="M49.7 84.4 c-1.6 -1.6 -0.7 -4.4 1.4 -4.4 1.5 0 2 0.5 1.7 2.2 -0.3 2.2 -1.9 3.3 -3.1 2.2z"/>
  <path d="M67 84.6 c0 -0.2 0.7 -2 1.5 -4 1.4 -3.2 1.6 -6 1.5 -15.3 0 -1.2 -0.4 -2.5 -0.9 -2.8 -0.5 -0.3 -1 2.1 -1 5.2 0 6.4 -2.1 13.5 -4.1 14.1 -1 0.4 -1.1 -0.4 -0.5 -3.4 0.4 -2.2 0.9 -10.9 1.1 -19.4 0.2 -14.2 1 -18.1 2.9 -15.1 1 1.8 2.5 1.2 2.5 -0.9 0 -2.4 2.5 -2.7 3.4 -0.4 1.3 3.3 0.6 4.4 -2.4 4.4 -2.1 0 -3 0.5 -3 1.6 0 1.2 0.6 1.5 2.5 1 2.1 -0.5 2.5 -0.2 3.1 2.9 0.8 4.4 0 6.5 -2.6 6.5 -1.1 0 -2 0.4 -2 0.8 0 0.5 2.2 0.7 5 0.5 l5 -0.3 -0.3 5.5 c-0.5 8 -2.6 9.2 -3.1 1.8 -0.5 -6.3 -2 -4.8 -2.3 2.4 -0.4 7.7 -2.8 15.3 -4.9 15.3 -0.8 0 -1.4 -0.2 -1.4 -0.4z"/>
  <path d="M76.7 82.3 c-1 -1 -0.8 -8.3 0.2 -8.3 1 0 2.1 3.4 2.1 6.8 0 2.2 -1 2.9 -2.3 1.5z"/>
  <path d="M82.3 81.8 c-0.4 -0.7 -1 -6 -1.3 -11.8 l-0.5 -10.5 -3 -0.6 c-1.6 -0.4 -2.4 -0.7 -1.7 -0.8 1.4 -0.1 1.7 -5.1 0.2 -5.1 -1.1 0 -1.4 -10.3 -0.3 -11.3 0.3 -0.4 1.5 0.1 2.5 1 1.1 1 2.9 1.8 4.1 1.8 1.6 0 2.1 0.5 1.9 2 -0.2 1.1 -0.9 2.3 -1.5 2.7 -0.9 0.6 -0.9 0.8 -0.1 0.8 0.8 0 1.4 4.2 1.8 12.8 0.4 7 0.8 14.2 0.9 16.1 0.2 3.5 -1.5 5.2 -3 2.9z m-1.5 -27 c-0.6 -1.8 -2.8 -2.1 -2.8 -0.4 0 0.9 0.7 1.6 1.6 1.6 0.9 0 1.4 -0.5 1.2 -1.2z m0.2 -5.7 c0 -1.2 -2 -2.5 -2.7 -1.8 -0.7 0.7 0.6 2.7 1.8 2.7 0.5 0 0.9 -0.4 0.9 -0.9z"/>
  <path d="M40.7 80.3 c-0.4 -0.3 -0.7 -6.2 -0.7 -12.9 0 -11.2 0.2 -12.4 1.9 -13.4 1.1 -0.5 2.9 -1 4 -1 3.1 0 2.5 -1.8 -0.6 -2.2 -3 -0.3 -3.9 -2.3 -2.9 -6.5 0.8 -3 3.1 -2.5 3.1 0.8 0 1.4 0.7 2.5 1.7 2.7 1.3 0.2 1.7 -0.6 2 -3.5 0.4 -5.2 3.2 -5.3 3.6 0 0.4 4.6 3.2 5.3 3.2 0.7 0 -3.2 0.9 -3.7 2.8 -1.8 2.9 2.9 0.7 7.8 -3.5 7.8 -1.3 0 -2.3 0.5 -2.3 1 0 0.6 1.6 1 3.5 1 4.8 0 5.6 2.5 5.3 16.4 -0.2 9.1 -0.6 11.1 -1.8 11.1 -1.2 0 -1.6 -2 -1.8 -11.2 -0.2 -9.5 -0.5 -11.1 -1.8 -10.6 -1.1 0.4 -1.2 0.9 -0.3 1.9 1.3 1.5 0.4 3.4 -1.7 3.4 -0.8 0 -1.4 0.5 -1.4 1 0 0.6 0.7 1 1.5 1 0.8 0 1.5 0.7 1.5 1.5 0 0.8 -0.7 1.5 -1.5 1.5 -0.9 0 -1.5 0.9 -1.5 2.5 0 1.8 -0.5 2.5 -2 2.5 -1.4 0 -2 -0.7 -2 -2.4 0 -1.6 -0.7 -2.6 -2.2 -3 l-2.3 -0.6 2.5 -2 c2.5 -1.9 2.5 -2 0.3 -2 -1.7 0 -2.3 -0.7 -2.6 -3.2 -0.2 -1.8 -0.5 2 -0.5 8.5 -0.2 9 -0.5 11.7 -1.5 11.7 -0.8 0 -1.7 -0.3 -2 -0.7z m11.6 -21.7 c1.6 -2.4 1.6 -2.4 -1.8 -2.3 -4 0.1 -4.1 0.3 -1.8 2.9 2 2.2 1.8 2.3 3.6 -0.6z"/>
  <path d="M113.1 78.6 c-1.3 -1.3 -3.4 -2.7 -4.7 -3 -4.2 -1.1 -2.9 -3.5 1.9 -3.4 2.3 0.1 5.2 -0.2 6.5 -0.7 1.7 -0.6 2.2 -0.4 2.2 1 0 0.9 -0.9 1.9 -2 2.2 -1.9 0.5 -2 0.7 -0.4 2.4 1.5 1.7 1.2 3.9 -0.5 3.9 -0.4 0 -1.8 -1.1 -3 -2.4z"/>
  <path d="M7.6 77.5 c-0.3 -0.9 0.7 -3 2.6 -5.1 l3.1 -3.6 -3.6 0.7 c-3 0.6 -3.7 0.4 -3.7 -0.8 0 -1.7 1.2 -2.2 7.6 -3.2 5.6 -0.9 6.3 0.6 2.6 5.3 l-3 3.8 3.4 -0.4 c2.5 -0.3 3.4 0 3.4 1.1 0 1 -1.4 1.7 -4.2 2.2 -2.4 0.3 -5 0.9 -5.9 1.1 -0.9 0.3 -1.9 -0.2 -2.3 -1.1z"/>
  <path d="M117 67.6 c0 -1.1 -1.4 -1.6 -4.7 -1.8 -3.5 -0.2 -4.8 -0.7 -4.8 -1.8 0 -1.1 1.2 -1.5 4.8 -1.4 3.2 0 4.7 -0.4 4.7 -1.3 0 -0.7 0.8 -1.3 1.8 -1.2 1 0 1.2 0.3 0.5 0.6 -1.6 0.6 -1.7 4 -0.1 4.5 1.4 0.5 0.4 3.8 -1.2 3.8 -0.5 0 -1 -0.7 -1 -1.4z"/>
  <path d="M10.8 61.4 c-6.8 -3.5 -6.5 -5.7 1 -7.8 7.3 -2 7.2 -2 7.2 0.4 0 1.1 -0.7 2 -1.5 2 -1.7 0 -2.1 3.5 -0.5 4.5 1.4 0.9 1.2 3.5 -0.2 3.5 -0.7 -0.1 -3.4 -1.2 -6 -2.6z"/>
  <path d="M1.7 58.2 c-1.6 -0.3 -1.8 -1 -1.2 -5.5 2.5 -18.3 16 -36.7 33.5 -45.6 7.4 -3.8 18.1 -7 23.3 -7.1 1 0 1.7 0.8 1.7 2 0 1.1 -0.2 2 -0.4 2 -0.2 0 -4 0.7 -8.4 1.5 -8.3 1.6 -17.1 5.7 -24.4 11.6 -2 1.6 -4.2 2.9 -4.7 2.9 -0.6 0 -1.1 0.4 -1.1 1 0 0.5 -1.8 3.3 -4 6.2 -5.7 7.4 -8.7 14.1 -10.8 23.3 -1.4 6.8 -2 8 -3.5 7.7z"/>
  <path d="M107.4 57.5 c-0.9 -2.1 -0.7 -2.2 5.9 -3 4.9 -0.6 5.7 -0.5 5.7 0.9 0 1.9 -0.7 2.2 -6.8 3 -3.3 0.5 -4.4 0.3 -4.8 -0.9z"/>
  <path d="M122 57.3 c0 -0.5 -0.7 -3.8 -1.5 -7.6 -1.9 -9 -7.7 -19.8 -14.7 -27.3 -3.2 -3.3 -5.4 -6.4 -5 -6.8 0.4 -0.5 0 -0.6 -0.8 -0.5 -0.8 0.2 -4.6 -1.4 -8.3 -3.5 -6.4 -3.6 -12.2 -5.5 -21 -7.1 -2.9 -0.5 -3.7 -1 -3.5 -2.3 0.3 -1.3 1.3 -1.6 4.3 -1.5 17.6 1 38 15.2 47.3 33 4.1 8 7.8 20.3 6.8 22.9 -0.6 1.5 -3.6 2 -3.6 0.7z"/>
  <path d="M105.1 50.8 c-0.5 -1.3 -0.5 -3.1 0.1 -4 0.6 -1.4 0.5 -1.8 -0.7 -1.8 -1.8 0 -2 -3.1 -0.2 -4.9 1 -1.1 0.8 -1.1 -1.1 -0.2 -1.8 1 -2.3 0.9 -2.8 -0.4 -0.4 -0.9 -0.5 -1.7 -0.3 -1.9 1.3 -0.9 9.9 -5.6 10.3 -5.6 0.5 0 3.6 5.4 3.6 6.4 0 1.4 -3.5 3.6 -5 3.1 -2.1 -0.7 -3.6 2.3 -2 3.9 0.5 0.5 1 1.8 1 2.8 0 2.9 1.7 2.1 2.4 -1.2 0.5 -2.5 1 -3 3.6 -3 2.4 0 3.1 0.5 3.6 2.6 0.4 1.5 0.2 3 -0.5 3.7 -0.9 0.9 -1.3 0.6 -1.7 -1.1 -0.7 -2.6 -2.4 -2.9 -2.4 -0.4 0 4.4 -6.4 5.9 -7.9 2z"/>
  <path d="M12.5 49 c-2.2 -1 -4 -2.5 -4 -3.2 0 -0.7 2.1 -2 4.7 -2.9 l4.7 -1.5 -3 -1.1 c-1.6 -0.6 -2.9 -1.8 -2.9 -2.7 0 -2 -0.3 -2 6.5 0.6 6.8 2.6 7 4.7 0.5 6.3 l-4.5 1.1 3.3 1.8 c3.3 1.7 3.5 3.7 0.4 3.5 -0.9 0 -3.5 -0.9 -5.7 -1.9z"/>
  <path d="M87.3 45.5 c0 -2.2 0.2 -3 0.4 -1.7 0.2 1.2 0.2 3 0 4 -0.3 0.9 -0.5 -0.1 -0.4 -2.3z"/>
  <path d="M19.7 36.3 c-2.6 -1.9 -4.7 -3.9 -4.7 -4.3 0 -1.5 2 -2.2 3.3 -1.2 0.9 0.8 1.2 0.3 1.2 -2 0 -4.1 2.1 -4.7 2.8 -0.9 0.5 2.5 1.1 2.9 4.5 3.2 l3.8 0.4 -1.8 -4.8 c-3.2 -8.3 -2 -11.1 3.2 -8 1.6 0.9 3 2 3 2.4 0 0.4 1.2 1 2.6 1.3 2.9 0.8 2.7 3.1 -0.2 3.1 -2.7 0.1 -4.4 1.4 -4.4 3.4 0 3 -4.5 6.4 -7.7 5.8 -2.4 -0.4 -2.5 -0.4 -1 0.8 1.8 1.3 2.2 3.1 0.9 3.9 -0.4 0.2 -2.9 -1.2 -5.5 -3.1z"/>
  <path d="M95.8 33.5 c-1 -1.3 -1.8 -2.6 -1.8 -2.8 0 -0.3 2.1 -2.2 4.6 -4.2 l4.6 -3.8 2.6 2.6 c2.1 2.1 2.4 2.9 1.4 3.9 -0.9 0.9 -1.5 0.9 -2.4 0 -1.9 -1.9 -2.9 -1.4 -1.6 0.8 1.7 2.6 0.3 3.7 -2.1 1.6 -1.1 -1 -2.2 -1.3 -2.5 -0.8 -0.3 0.5 0.1 1.5 0.9 2.2 0.8 0.7 1.2 1.6 0.9 2.1 -0.9 1.6 -2.8 0.9 -4.6 -1.6z"/>
  <path d="M88.4 26.9 c-1 -1.7 1.7 -12.9 3.2 -12.9 2 0 2.4 1.4 1.4 4.9 -0.9 3.3 0 4.1 2 1.6 1.5 -1.8 5 -2 5 -0.2 0 1 -9 7.7 -10.4 7.7 -0.3 0 -0.8 -0.5 -1.2 -1.1z"/>
  <path d="M40.1 20.9 c-1.2 -1.9 -2.1 -4.2 -2.1 -5.1 0 -1 -0.5 -1.8 -1.2 -1.8 -0.9 0 -0.9 -0.3 0.1 -1.2 1 -1.1 1.6 -0.8 3.1 1.2 3.1 4 4.5 7.9 3.2 9.2 -0.8 0.8 -1.7 0.1 -3.1 -2.3z"/>
  <path d="M81 21.5 c0 -2.4 4.3 -10.6 5.5 -10.2 1.3 0.5 1 3.3 -1 8 -1.5 3.6 -4.5 5.1 -4.5 2.2z"/>
  <path d="M73.9 16.8 l-2.2 -4.3 -0.9 3.3 c-0.5 1.8 -1.5 3.2 -2.3 3.2 -1.8 0 -1.8 -0.2 -0.2 -6.5 1.7 -6.3 3.9 -7 6.5 -1.9 l1.9 3.7 1.2 -3.3 c0.8 -2.6 1.4 -3.1 2.3 -2.2 1.6 1.6 -0.8 12.2 -2.8 12.2 -0.7 0 -2.3 -1.9 -3.5 -4.2z"/>
  <path d="M55.2 17.8 c-1.7 -1.7 -1.5 -5.8 0.2 -5.8 0.7 0 1.6 0.9 1.9 2 0.3 1.1 1.2 2 2.1 2 1.2 0 1.6 -1 1.6 -3.5 0 -2.8 0.4 -3.5 2 -3.5 1.6 0 2 0.7 2 3.1 0 4.8 -1.6 6.9 -5.3 6.9 -1.8 0 -3.8 -0.5 -4.5 -1.2z"/>
  <path d="M54.2 8.4 c0.4 -2.1 2.2 -2.3 2.6 -0.1 0.2 1 -0.3 1.7 -1.3 1.7 -1 0 -1.5 -0.6 -1.3 -1.6z"/>
 </g>
 <g fill="#cdb0c3">
  <path d="M53.2 124.9 c-7.1 -1.1 -17.2 -4.6 -17.2 -6 0 -0.5 -0.8 -0.9 -1.8 -0.9 -3 0 -10.6 -5.6 -17.5 -12.9 -23 -24.4 -22.1 -62.4 1.9 -86.5 10.1 -10 21.8 -15.7 37.2 -18.1 3.4 -0.6 4.2 -0.4 4.2 0.9 0 1.1 0.9 1.6 3 1.6 2 0 3 -0.5 3 -1.5 0 -1.9 1.1 -1.9 10.2 0 12.1 2.6 21 7.6 30.8 17.4 6.4 6.4 9.5 10.5 12.3 16.1 8.8 17.7 8.8 38 -0.1 56 -7.1 14.4 -24.1 28.4 -39.4 32.4 -7.6 2 -19.1 2.6 -26.6 1.5z m22.3 -3.8 c2.8 -0.6 9.1 -3.1 14.1 -5.5 11.5 -5.7 21 -15.2 26.6 -26.6 4.4 -9.1 5.7 -14.9 5.8 -26.6 0.2 -16.5 -6.1 -30.8 -18.8 -42.5 -11.6 -10.8 -24.7 -15.9 -40.2 -15.9 -16.9 0 -29.3 5.2 -41.5 17.5 -12.7 12.7 -17.5 24 -17.5 41.5 0 16.5 4.7 28.3 15.9 40.2 9.1 9.7 18 14.6 33.6 18.6 4.6 1.2 14.6 0.9 22 -0.7z"/>
  <path d="M52.8 118.2 c-3 -0.6 -2 -2.2 1.5 -2.3 3.3 -0.1 3.1 -0.3 -1.6 -1.3 -2.4 -0.6 -2.8 -1.1 -2.5 -3.4 0.2 -2.2 0.9 -2.8 3.5 -3 4.2 -0.4 7.3 1.3 7.3 4.1 0 4.2 -3.8 6.9 -8.2 5.9z m5.2 -6.1 c0 -1.1 -3.9 -2.5 -4.7 -1.8 -0.3 0.3 -0.2 1 0.2 1.6 0.8 1.3 4.5 1.5 4.5 0.2z"/>
  <path d="M67.4 115.3 c-0.4 -2.1 -1.2 -4.1 -1.8 -4.5 -0.8 -0.6 -0.6 -1.1 0.4 -1.8 2.6 -1.7 3.5 -0.5 3.8 4.8 0.4 6 -1.4 7.1 -2.4 1.5z"/>
  <path d="M79 115.2 c0 -0.5 1 -1.4 2.3 -2 1.9 -0.9 1.7 -1 -1.8 -0.9 -3.6 0.2 -4 0 -4.3 -2.4 -0.3 -2.2 0.2 -2.9 2.9 -3.8 4.3 -1.5 5.9 -1.4 5.9 0.4 0 0.8 0.5 1.5 1 1.5 1.7 0 1.1 4.6 -0.8 6.3 -2 1.8 -5.2 2.3 -5.2 0.9z m3.6 -6.4 c0.3 -0.5 0.4 -1.2 0.1 -1.4 -0.7 -0.7 -4.7 1.5 -4.7 2.5 0 1.1 3.8 0.2 4.6 -1.1z"/>
  <path d="M40.5 112.3 c0.5 -1 1 -3.3 1.3 -5 0.4 -3.5 0.9 -3.8 3 -2.4 1.7 1.1 -1.3 9.1 -3.5 9.1 -1.1 0 -1.3 -0.5 -0.8 -1.7z"/>
  <path d="M52 103.5 c-12 -3.4 -21.7 -11.7 -27.4 -23.5 -2.9 -6 -3.1 -7.3 -3.1 -17 0 -9.7 0.2 -11 3.1 -17.1 15.8 -33.3 62.1 -32.9 77 0.7 9.5 21.4 -2 47.6 -24.3 55.6 -7.6 2.7 -18.2 3.2 -25.3 1.3z m9.3 -3.6 c-1.2 -1.2 -0.6 -4.2 0.7 -3.4 0.4 0.2 3 -1.8 5.7 -4.5 3.5 -3.5 5.8 -5 7.7 -5 3.2 0 3.5 2.6 0.4 3.3 -1.3 0.4 -4.5 2.9 -7.3 5.7 -4.6 4.7 -4.8 5 -2.4 5 4.5 0 13.3 -3.1 18.1 -6.3 5.4 -3.6 5.9 -4.7 2.2 -4.7 -2.3 0 -2.4 -0.1 -1 -1.6 1.2 -1.1 1.6 -3.5 1.6 -8.4 l0 -6.9 5.1 -5.1 5.1 -5.2 -5.1 -5.2 -5.1 -5.2 0 -6.7 0 -6.7 -6.7 0 c-5.5 0 -7.1 -0.4 -9 -2.2 -1.3 -1.2 -2.3 -3 -2.3 -4 0 -1.9 0.1 -1.9 2.9 0.1 2.3 1.7 4.4 2.1 10.3 2.1 l7.3 0 -2.5 -2.1 c-4.3 -3.5 -12.6 -7 -18.2 -7.5 -2.9 -0.3 -4.8 -0.2 -4.3 0.3 0.6 0.4 1.7 1.7 2.5 2.7 1.4 1.8 1.3 1.9 -1.5 1.3 -2.6 -0.5 -3.7 0.1 -8 4.3 l-5 4.8 -8.7 0.5 c-7.5 0.4 -8.7 0.2 -9.1 -1.2 -0.2 -1.1 -1.3 0 -3.5 3.3 -3.1 4.9 -5.5 11.1 -6.6 17.6 l-0.6 3.5 5.5 -5.5 c3 -3 5.5 -6 5.5 -6.7 0 -1.9 2.7 -1.6 3.4 0.4 0.5 1.1 -0.8 3.2 -4.2 6.7 -2.7 2.8 -5.2 5.9 -5.6 7 -0.5 1.5 -0.9 1.6 -2.1 0.6 -2.2 -1.8 -2.4 -1.1 -1.4 4.4 1 5.5 4.7 13.8 7.8 17.6 l2.1 2.5 0.1 -3.5 c0 -1.9 0.3 -2.9 0.6 -2.2 0.2 0.6 1.1 1.2 1.8 1.2 1.2 0 2.5 2.1 2.5 4.1 0 0.5 -0.7 0.9 -1.5 0.9 -2.8 0 -1.5 1.8 3.6 5.1 5.3 3.4 12.2 5.7 17.4 5.8 2.1 0.1 2.6 -0.2 1.8 -1z m36.4 -20.9 c2.5 -5.5 4.6 -15 3.3 -15 -0.4 0 -2.8 2.1 -5.3 4.7 l-4.7 4.7 0 8.1 0 8 2.1 -2.5 c1.1 -1.4 3.2 -5 4.6 -8z m1.8 -27.9 c-0.9 -2.7 -3 -7.1 -4.8 -9.7 l-3.2 -4.9 -0.3 7.4 -0.3 7.4 4.8 4.9 c4.7 4.8 4.8 4.8 5.1 2.3 0.2 -1.4 -0.4 -4.8 -1.3 -7.4z m-42.6 -21.3 l5.4 -5.1 -5.2 0.6 c-5.7 0.7 -14.1 4.2 -18.1 7.5 l-2.5 2.1 7.5 0.1 7.5 0 5.4 -5.2z"/>
  <path d="M51.3 91 c-3.8 -1.8 -4.3 -4 -0.9 -4 2.6 0 4.9 2.2 4.4 4.2 -0.2 1 -1 1 -3.5 -0.2z"/>
  <path d="M50.2 83.8 c-0.7 -0.7 -1.2 -4.2 -1.2 -8 0 -5.3 -0.3 -6.8 -1.4 -6.8 -2.4 0 -3 -2.1 -0.7 -2.7 2.7 -0.7 2.7 -1.9 0 -2.6 -1.2 -0.3 -1.8 -1 -1.5 -1.5 0.9 -1.5 -0.4 -4.3 -1.6 -3.5 -0.7 0.4 -0.8 4.2 -0.4 10.9 0.6 8.8 0.4 10.4 -0.8 10.4 -1.8 0 -2.9 -7.6 -2.4 -18 l0.3 -7.5 4.3 -0.3 c2.8 -0.2 4.2 -0.8 4.2 -1.8 0 -0.8 -1 -1.4 -2.2 -1.4 -3.6 0 -5 -1.5 -4.6 -4.5 0.4 -3.7 2.8 -4.6 2.8 -1.1 0 1.9 0.5 2.6 1.9 2.6 1.5 0 2.1 -0.8 2.3 -3.2 0.4 -4.4 3.3 -4.6 3.3 -0.3 0 2.3 0.4 3 2 3 1.5 0 1.9 -0.6 1.7 -2.2 -0.4 -3.1 1.6 -3.8 2.9 -0.9 1.6 3.4 0.5 5.5 -3.1 6.2 -4.3 0.9 -3.8 3.2 0.7 3.6 3.5 0.3 3.8 0.5 4.5 4.3 0.7 4.4 0.1 8.5 -1.3 8.5 -0.5 0 -0.9 -1.8 -0.9 -3.9 0 -4 -1.1 -5.7 -3 -4.6 -0.8 0.5 -0.7 1.1 0 2 1.5 1.8 0.4 3.5 -2.1 3.5 -1 0 -1.9 0.5 -1.9 1 0 0.6 0.9 1 2 1 2.4 0 2.6 1.6 0.3 2.8 -1.3 0.8 -1.6 2.3 -1.4 8 0.2 7 -0.6 9.1 -2.7 7z m2.2 -25.3 l1.6 -2.5 -4 0 -4.1 0 1.8 2.5 c2.3 3.1 2.7 3.1 4.7 0z"/>
  <path d="M68.3 82.8 c2.7 -11 2.9 -12.1 1.8 -14.4 -0.5 -1.3 -0.7 -2.6 -0.2 -2.8 0.5 -0.3 0.6 -1.7 0.3 -3.2 -0.4 -2.1 -0.1 -2.5 1.3 -2.2 2.1 0.4 2.4 3 1.4 12.7 -0.8 6.9 -2.5 12.1 -4.2 12.1 -0.5 0 -0.7 -1 -0.4 -2.2z"/>
  <path d="M82.6 82.3 c-0.9 -1 -0.7 -11.3 0.3 -11.3 1.1 0 2.1 3.5 2.1 7.7 0 3.1 -1.1 4.9 -2.4 3.6z"/>
  <path d="M63.5 79.3 c0.4 -1.6 0.9 -10.1 1.2 -19.1 l0.5 -16.4 2.4 0.6 c1.9 0.5 2.4 0.2 2.4 -1.4 0 -1.1 0.7 -2 1.5 -2 1.8 0 2.7 4.8 2.3 12 -0.3 4.8 -0.6 5.5 -2.8 6 -2.4 0.6 -2.5 1.1 -3.2 9 -0.7 9.1 -2.1 14 -3.9 14 -0.7 0 -0.9 -0.9 -0.4 -2.7z m7.3 -25 c-0.4 -2.2 -2.2 -2 -2.6 0.1 -0.2 1 0.3 1.6 1.3 1.6 1 0 1.5 -0.7 1.3 -1.7z m0.2 -5.3 c0 -0.5 -0.7 -1 -1.5 -1 -0.8 0 -1.5 0.5 -1.5 1 0 0.6 0.7 1 1.5 1 0.8 0 1.5 -0.4 1.5 -1z"/>
  <path d="M76 78.5 c0 -3.9 1.4 -4.7 2.4 -1.2 0.9 3.5 0.7 4.7 -0.9 4.7 -1 0 -1.5 -1.1 -1.5 -3.5z"/>
  <path d="M59 77.6 c0 -1.4 0.5 -2.6 1 -2.6 0.6 0 1 0.7 1 1.5 0 0.8 0 1.8 0.1 2.2 0 0.4 -0.4 0.9 -1 1.1 -0.6 0.2 -1.1 -0.8 -1.1 -2.2z"/>
  <path d="M37 74.9 c0 -1.7 0.4 -2.8 1 -2.4 0.6 0.3 1 1.7 1 3.1 0 1.3 -0.4 2.4 -1 2.4 -0.5 0 -1 -1.4 -1 -3.1z"/>
  <path d="M75.7 68.3 c-1.1 -6.3 -0.8 -8.3 1.3 -8.3 1.5 0 2 0.6 1.9 2.8 -0.2 4.6 -1 8.2 -1.9 8.2 -0.5 0 -1.1 -1.2 -1.3 -2.7z"/>
  <path d="M81.5 62 c-0.5 -2.5 -1.1 -3 -3.6 -3 -2.4 0 -2.9 -0.4 -2.9 -2.5 0 -2.5 1.4 -3.3 2.5 -1.5 1 1.5 3.5 1.2 3.5 -0.5 0 -0.8 -0.7 -1.5 -1.5 -1.5 -0.8 0 -1.5 -0.7 -1.5 -1.5 0 -0.8 0.7 -1.5 1.5 -1.5 2.1 0 1.9 -1.7 -0.5 -3 -1.7 -0.9 -2 -0.8 -2 1 0 1.1 -0.4 2 -1 2 -1.3 0 -1.3 -7.7 -0.1 -8.5 0.6 -0.3 1.5 0.4 2.1 1.5 0.6 1.1 2.2 2.3 3.5 2.6 2.4 0.6 2.5 0.9 2.5 10 0 9.2 -1.2 12.3 -2.5 6.4z"/>
  <path d="M21.4 95.9 c-0.9 -1.5 1.1 -3.3 3 -2.6 0.9 0.4 1.3 1.3 1 2.2 -0.7 1.7 -3 2 -4 0.4z"/>
  <path d="M100.3 95.4 c-0.7 -1.8 1.7 -3.8 3.1 -2.4 1.1 1.1 0.1 4 -1.4 4 -0.6 0 -1.3 -0.7 -1.7 -1.6z"/>
  <path d="M114.1 78.6 c-1.3 -1.4 -3.7 -2.8 -5.3 -3.1 -4.3 -1 -2.9 -2.9 2.3 -3 2.4 -0.1 5.2 -0.5 6.2 -1 1.2 -0.5 1.7 -0.3 1.7 0.8 0 0.9 -0.9 1.9 -2.1 2.2 -1.6 0.5 -1.8 1 -0.9 2 0.7 0.8 1 2.1 0.8 3 -0.2 1.4 -0.7 1.2 -2.7 -0.9z"/>
  <path d="M8 77.2 c0 -0.8 1.2 -3 2.6 -4.9 l2.5 -3.3 -3.2 0.2 c-5.8 0.5 -4.3 -1.9 1.8 -3 7.5 -1.3 8.4 0 3.5 5.1 l-3.7 3.8 4.3 -0.7 c2.9 -0.4 4.2 -0.3 4.2 0.5 0 1.4 -1 1.8 -7.2 3 -4 0.7 -4.8 0.6 -4.8 -0.7z"/>
  <path d="M117.4 67.6 c-0.4 -1.1 -1.9 -1.6 -4.3 -1.6 -4.2 0 -6.7 -1.3 -5.6 -2.9 0.4 -0.8 2.2 -1 5.1 -0.5 3.7 0.5 4.4 0.4 4.4 -1 0 -0.9 0.7 -1.6 1.5 -1.6 1.1 0 1.5 1.1 1.5 3.9 0 4.2 -1.6 6.4 -2.6 3.7z"/>
  <path d="M10.7 61.1 c-6.2 -3.4 -5.8 -5.2 1.5 -7 5.9 -1.5 8.6 -0.9 5.5 1.3 -1.8 1.4 -2.4 5.6 -0.7 5.6 0.6 0 1 0.7 1 1.5 0 2 -1.7 1.7 -7.3 -1.4z"/>
  <path d="M107 57.1 c0 -1.4 1 -1.8 6.8 -2.6 4.2 -0.6 5.2 -0.4 5.2 0.8 0 0.8 -1.3 1.7 -3.1 2.1 -4.6 0.9 -8.9 0.7 -8.9 -0.3z"/>
  <path d="M106.2 51.8 c-1.6 -1.6 -1.6 -6.1 0.1 -5.5 0.6 0.2 1.2 1 1.2 1.7 0 2.6 2.1 2 3.2 -1 1.3 -3.5 4.7 -4.1 6.3 -1.1 1.4 2.7 1.3 4.1 -0.5 4.1 -0.8 0 -1.5 -0.7 -1.5 -1.5 0 -2.5 -1.5 -1.7 -2.7 1.5 -1.2 3.2 -3.9 4 -6.1 1.8z"/>
  <path d="M13.3 49 c-5.6 -2.5 -5.5 -4.4 0.4 -6.1 l4.7 -1.3 -3.2 -1.3 c-3.1 -1.3 -4 -2.7 -2.4 -3.6 0.4 -0.3 3.1 0.6 6.1 1.9 6.2 2.8 6 4.1 -1.2 6 l-4.2 1.2 3.3 1.2 c1.7 0.6 3.2 1.8 3.2 2.6 0 1.8 -1.6 1.7 -6.7 -0.6z"/>
  <path d="M103.6 44.2 c-0.4 -0.7 -0.2 -2.1 0.4 -3.3 1 -1.9 0.9 -2 -0.8 -1.5 -4.3 1.4 -3 -1.5 2 -4.3 5.1 -2.9 5.2 -3 6.6 -1 2 3 1.2 6.3 -1.8 6.7 -1.4 0.2 -3.2 1.3 -4.1 2.4 -1.1 1.4 -1.8 1.7 -2.3 1z m7.4 -7.3 c0 -0.5 -0.7 -0.9 -1.5 -0.9 -1.5 0 -2 1.2 -0.9 2.3 0.8 0.8 2.4 -0.1 2.4 -1.4z"/>
  <path d="M19.3 35.8 c-4.1 -3 -4.8 -5.4 -1.3 -4.5 1.4 0.4 1.7 -0.1 1.6 -2.2 -0.1 -3.5 1.8 -4.3 2.2 -0.8 0.3 2.1 0.9 2.7 2.7 2.7 1.3 0 3 0.3 3.9 0.6 2.8 1.1 1.7 2.4 -2.1 2.4 -3.4 0 -3.5 0.1 -2 1.8 3.9 4.3 0.7 4.3 -5 0z"/>
  <path d="M96.7 34.2 c-2.3 -2.6 -2.2 -3.4 1.6 -7 3.9 -3.8 5.3 -4 7.7 -1 2.3 2.9 1.4 4.5 -1.1 2.2 -2.4 -2.2 -3.5 -1.3 -1.8 1.5 1.8 2.7 0.4 3.9 -2 1.7 -1.1 -1 -2.1 -1.3 -2.5 -0.7 -0.4 0.5 -0.2 1.2 0.4 1.6 1.2 0.7 1.3 3.5 0.2 3.5 -0.5 0 -1.6 -0.8 -2.5 -1.8z"/>
  <path d="M28.6 25.5 c-2.6 -8.4 -1 -9.4 6.8 -4.5 4.4 2.8 5.5 5.7 1.8 4.6 -2.2 -0.7 -4.7 0.9 -4.7 3 0 3.9 -2.2 2.1 -3.9 -3.1z m3.3 -3.1 c-1.5 -1.8 -2.2 -1.3 -1.3 1 0.3 0.9 1 1.3 1.6 1 0.5 -0.3 0.4 -1.2 -0.3 -2z"/>
  <path d="M88 25.7 c0 -2.7 3.1 -11.7 4 -11.7 1.3 0 1.3 3.2 0 6.4 -1.2 3.2 -0.7 3.2 3.2 0.5 2 -1.5 3.3 -1.8 4 -1.1 0.7 0.7 -0.5 2 -3.5 4.1 -4.8 3.3 -7.7 4 -7.7 1.8z"/>
  <path d="M81 22.1 c0 -1.7 4.3 -11.1 5.1 -11.1 1.8 0 1.7 2 -0.3 6.9 -1.2 2.8 -2.8 5.1 -3.5 5.1 -0.7 0 -1.3 -0.4 -1.3 -0.9z"/>
  <path d="M38.2 17.1 c-2 -3.5 -2 -5.1 -0.1 -5.1 1.1 0 3.9 5.4 3.9 7.5 0 2.6 -1.5 1.7 -3.8 -2.4z"/>
  <path d="M73.8 16.3 l-2.1 -4.8 -0.7 3.3 c-0.4 1.8 -1 3.5 -1.3 3.9 -0.9 0.9 -2.6 -0.7 -2.2 -2 0.2 -0.7 0.9 -3.1 1.5 -5.4 0.7 -2.7 1.6 -4.3 2.6 -4.3 0.8 0 2.3 1.9 3.4 4.3 l1.8 4.2 0.7 -3.2 c0.4 -1.8 1.4 -3.3 2.1 -3.3 1.7 0 1.7 0.5 0.2 6.9 -1.5 6.4 -3.2 6.5 -6 0.4z"/>
  <path d="M55.2 17.8 c-1.7 -1.7 -1.5 -4.8 0.3 -4.8 0.8 0 1.5 0.7 1.5 1.5 0 1.8 3.9 2 4.1 0.3 0.1 -0.7 0.2 -2.9 0.3 -4.8 0.1 -2.4 0.6 -3.5 1.6 -3.5 2.3 0 2.6 8.2 0.4 10.6 -1.9 2.1 -6.4 2.5 -8.2 0.7z"/>
  <path d="M54 9 c0 -1.1 0.7 -2 1.5 -2 0.8 0 1.5 0.9 1.5 2 0 1.1 -0.7 2 -1.5 2 -0.8 0 -1.5 -0.9 -1.5 -2z"/>
 </g>
 <g fill="#ac769a">
  <path d="M45 122.7 c-8.5 -2.6 -16.6 -6.9 -22.5 -12.1 -5.4 -4.7 -2.1 -4.9 4.4 -0.2 11.3 8.2 21.8 11.6 35.9 11.6 14.7 0 25.7 -3.6 36.8 -12.1 2.8 -2.2 5.6 -3.9 6.3 -3.9 0.7 0 1 -0.4 0.7 -0.8 -0.2 -0.4 1.1 -2.8 3.1 -5.2 6.7 -8.4 10.7 -18.5 12.8 -32.2 0.4 -2.5 1.1 -3.8 2.2 -3.8 3.5 0 -1 18.5 -7.3 29.7 -4.5 8.1 -14.7 18.5 -22.7 23.2 -13.8 8.1 -34 10.4 -49.7 5.8z"/>
  <path d="M51 117 c0 -0.5 1.5 -1 3.3 -1.1 l3.2 0 -3.5 -1.2 c-3.6 -1.2 -4.7 -3.2 -3.1 -5.6 1.3 -2.1 9.4 -0.3 9.9 2.2 0.7 3.3 -2.5 6.7 -6.3 6.7 -1.9 0 -3.5 -0.4 -3.5 -1z m7 -5 c0 -0.6 -0.7 -1.3 -1.5 -1.6 -2 -0.8 -4.8 0.3 -4 1.6 0.8 1.3 5.5 1.3 5.5 0z"/>
  <path d="M67.5 114 c-0.4 -1.6 -1.1 -3 -1.6 -3 -1.7 0 -0.9 -1.8 1 -2.3 2.2 -0.5 3.1 1 3.1 5.4 0 3.8 -1.7 3.7 -2.5 -0.1z"/>
  <path d="M81.5 113.4 c2.1 -1.8 2.4 -2.4 1 -1.9 -4.7 1.7 -5.8 1.7 -6.6 0.4 -1.5 -2.4 -1 -3.8 2.1 -5.4 5.5 -2.9 8 -1.6 8 4 0 2.5 -3.3 5.5 -6 5.5 -1 0 -0.4 -0.9 1.5 -2.6z m0.1 -3.8 c1 -0.8 1.6 -1.8 1.2 -2.2 -1.1 -1 -6 1.4 -5.3 2.6 0.8 1.4 1.8 1.3 4.1 -0.4z"/>
  <path d="M40.7 113.4 c-0.3 -0.4 0 -1.9 0.8 -3.5 0.8 -1.5 1.2 -3.4 0.9 -4.3 -0.4 -1.1 0 -1.3 1.5 -0.9 2.6 0.7 2.6 0.5 0.1 5.3 -2.2 4.2 -2.3 4.4 -3.3 3.4z"/>
  <path d="M14.2 102.4 c-6.9 -8.4 -14.2 -26.6 -14.2 -35.6 0 -4.3 2.8 -3.6 3.5 1 2.1 13.8 5.2 21.8 12.1 31.2 4.3 6 3.1 8.9 -1.4 3.4z"/>
  <path d="M54.4 103.5 c-21.9 -4.7 -36.4 -25.6 -32.7 -47.1 3.1 -18.1 16.2 -31.1 34.6 -34.5 17 -3.1 35.7 6.3 43.6 22 1.7 3.3 3.1 6.7 3.1 7.6 0 2.6 -2.7 1.6 -3.5 -1.2 -1.8 -7.3 -11.5 -18.2 -19.9 -22.2 -4.2 -2.1 -14.5 -4.5 -15.4 -3.6 -0.3 0.2 0.1 1.1 0.8 2 1.1 1.3 0.8 1.5 -2 1.5 -2.8 0 -3.1 -0.2 -2 -1.5 1.9 -2.3 0.9 -2.6 -5.1 -1.5 -16.1 3 -28.6 16.1 -31.4 32.8 -0.7 4.2 0.1 5.2 2.3 3 0.9 -0.9 1.2 -0.5 1.2 2.2 0 3.3 0 3.3 -2.1 1.4 l-2.2 -1.9 0.8 5 c0.4 2.7 1.5 7.2 2.5 9.8 1.8 4.8 6.4 11.7 7.8 11.7 1 0 0.2 -15.3 -0.9 -16.6 -1.6 -2 1.8 -2.4 3.5 -0.5 1.1 1.2 1.6 3.7 1.6 8.4 0 5.3 0.3 6.7 1.5 6.7 0.8 0 1.5 0.7 1.5 1.5 0 1 -1 1.5 -3.2 1.5 -3 0 -3 0.1 -1.4 1.9 2.9 3.2 13 8 18.9 8.9 3.1 0.5 5.7 0.7 5.7 0.4 0 -0.3 -0.7 -1.4 -1.7 -2.4 -1.5 -1.7 -1.4 -1.8 2.7 -1.8 4.3 0 4.3 0 2.5 2 -1 1.1 -1.6 2.2 -1.4 2.4 0.2 0.2 2.9 0 5.9 -0.6 5.9 -1 15.8 -5.8 18.6 -8.9 1.6 -1.8 1.6 -1.9 -1.4 -1.9 -2.2 0 -3.2 -0.5 -3.2 -1.5 0 -0.8 0.7 -1.5 1.5 -1.5 1.2 0 1.5 -1.4 1.5 -6.7 0 -7 1.8 -10.7 4.6 -9.6 1.2 0.4 1.1 0.8 -0.1 2.6 -1.7 2.4 -2.1 15.7 -0.5 15.7 1.5 0 6.6 -8 8.3 -13 3.3 -9.7 3.2 -14.1 -0.1 -10.8 -0.9 0.9 -1.2 0.4 -1.2 -2.2 0 -2.6 0.3 -3.1 1.2 -2.2 2.2 2.2 3 1.2 2.3 -2.8 -0.5 -3.2 -0.4 -4 0.8 -4 2.9 0 3.6 10 1.3 18.5 -1.9 7.4 -5.2 13.2 -10.7 19 -6 6.4 -12.8 10.2 -21.6 12 -8.1 1.7 -9 1.7 -16.9 0z"/>
  <path d="M21.5 96.1 c-0.8 -1.5 0.3 -3.1 2.1 -3.1 0.9 0 1.4 0.7 1.2 1.7 -0.4 2 -2.4 2.8 -3.3 1.4z"/>
  <path d="M100.4 95.9 c-1 -1.7 1.3 -3.6 2.7 -2.2 1.2 1.2 0.4 3.3 -1.1 3.3 -0.5 0 -1.2 -0.5 -1.6 -1.1z"/>
  <path d="M68 84.1 c0 -0.5 0.7 -2.8 1.5 -5.1 1 -2.7 1.4 -7 1.3 -11.3 -0.2 -4.7 0.1 -7.2 0.9 -7.4 0.7 -0.3 1.3 0.9 1.5 2.9 0.4 4.4 -1.5 16.7 -3 19.6 -1.3 2.3 -2.2 2.8 -2.2 1.3z"/>
  <path d="M76.7 82.4 c-1 -1.1 -0.8 -6.4 0.2 -6.4 1.3 0 2.4 5.1 1.3 6.2 -0.4 0.4 -1.1 0.5 -1.5 0.2z"/>
  <path d="M63.4 79.8 c1.6 -6.2 2.8 -20.2 2.3 -27.6 l-0.6 -8.2 2.5 0.6 c2 0.5 2.6 0.2 3.1 -1.5 1 -3.9 2.1 -2.2 2.8 4.3 0.9 8.2 0.5 9.8 -2.6 11.3 -2.4 1.2 -2.7 1.9 -3.2 9 -0.3 4.3 -1.1 9.3 -1.8 11.1 -1.2 3.6 -3.5 4.5 -2.5 1z m7.4 -25.7 c0.3 -1.6 -0.1 -2.2 -1 -1.9 -0.7 0.3 -1.5 1.5 -1.6 2.7 -0.3 1.6 0.1 2.2 1 1.9 0.7 -0.3 1.5 -1.5 1.6 -2.7z m0.2 -5.1 c0 -0.5 -0.7 -1 -1.5 -1 -0.8 0 -1.5 0.5 -1.5 1 0 0.6 0.7 1 1.5 1 0.8 0 1.5 -0.4 1.5 -1z"/>
  <path d="M82.7 81.3 c-1 -1 -0.8 -5.3 0.2 -5.3 0.8 0 2 3.2 2.1 5.3 0 0.9 -1.4 0.9 -2.3 0z"/>
  <path d="M40.9 77.3 c-0.2 -2.2 -0.3 -4.6 -0.1 -5.6 0.6 -3 2.2 -1.8 2.4 1.8 0.1 1.9 0.2 4.3 0.2 5.2 0.2 3.6 -2.2 2.3 -2.5 -1.4z"/>
  <path d="M8 76.9 c0 -0.7 1.5 -2.8 3.3 -4.7 l3.2 -3.4 -3.9 0.4 c-5.7 0.5 -5.7 -1.8 0 -2.7 2.6 -0.3 5.3 -0.9 6 -1.2 2.6 -1 1.5 3.1 -1.8 6.5 l-3.3 3.5 3.7 -0.6 c2.1 -0.3 4 -0.2 4.3 0.3 0.8 1.2 -0.3 1.7 -6.2 2.5 -4 0.5 -5.3 0.4 -5.3 -0.6z"/>
  <path d="M110.2 76.1 c-4.5 -2.3 -4.1 -3.3 1 -3.5 2.4 -0.1 5.1 -0.6 6.1 -1 1.1 -0.5 1.7 -0.4 1.7 0.3 0 0.6 -1.1 1.7 -2.5 2.3 -1.9 0.9 -2.2 1.4 -1.4 2.5 1.6 1.8 -0.7 1.6 -4.9 -0.6z"/>
  <path d="M50 70.6 c0 -0.7 -1 -1.7 -2.2 -2 -2.2 -0.6 -2.2 -0.7 -0.4 -2 1.7 -1.4 1.4 -4.2 -0.4 -3.1 -0.5 0.3 -1 -0.7 -1.2 -2.2 -0.4 -3.9 -2.8 -4.2 -2.8 -0.4 0 3.6 -1.5 4.1 -2.4 0.9 -1.6 -6.1 -0.9 -7 5.8 -8 2.6 -0.4 3.3 -2.8 0.9 -2.8 -3.5 0 -5.7 -2.4 -4.9 -5.3 0.8 -3.4 2.6 -3.5 2.6 -0.3 0 1.3 0.6 2.6 1.4 2.9 1.6 0.6 3.6 -1.1 3.6 -3 0 -0.7 0.5 -1.3 1 -1.3 0.6 0 1 0.9 1 2 0 1.5 0.7 2 2.5 2 2.2 0 2.5 -0.3 1.9 -2.6 -0.5 -2 -0.3 -2.5 0.7 -2.2 0.8 0.2 1.5 1.9 1.7 3.6 0.3 2.8 0 3.1 -3.3 3.8 -4.5 0.8 -4 2.8 0.8 3.2 3 0.3 3.8 0.8 4.3 2.8 0.8 3.1 -0.4 4.5 -1.8 2.1 -0.8 -1.4 -1.3 -1.6 -2.4 -0.6 -0.8 0.6 -1.2 2 -0.9 2.9 0.4 1.2 -0.1 1.9 -1.5 2.3 -2.6 0.7 -2.6 2.7 0 2.7 1.1 0 2 0.5 2 1.1 0 0.6 -0.9 1.3 -2 1.6 -1.1 0.3 -2 1.2 -2 1.9 0 0.8 -0.4 1.4 -1 1.4 -0.5 0 -1 -0.6 -1 -1.4z m2.2 -11.3 c2.7 -2.5 2.2 -3.3 -2.2 -3.3 -4.5 0 -4.7 0.2 -2.3 3 2.1 2.4 2.2 2.4 4.5 0.3z"/>
  <path d="M75.9 69 c-0.5 -7 -0.3 -8.5 1 -8.5 1.5 0 2.2 4.3 1.4 8.3 -0.6 2.7 -2.3 2.9 -2.4 0.2z"/>
  <path d="M117.5 67.3 c-0.4 -1.3 -1.4 -2.3 -2.1 -2.3 -0.8 0 -1.4 -0.4 -1.4 -1 0 -0.5 0.6 -1 1.4 -1 0.8 0 1.7 -0.8 2 -1.7 1.2 -3.1 2.4 0.1 1.6 4.2 -0.7 3.5 -0.9 3.7 -1.5 1.8z"/>
  <path d="M13.5 62.4 c-6.6 -3.5 -7.7 -4.5 -6.5 -5.9 1.3 -1.6 10.8 -4 11.8 -3 0.4 0.4 -0.1 1.2 -1.1 1.9 -1.9 1.4 -2.3 5.1 -0.7 6.1 1.2 0.7 1.3 2.5 0.3 2.5 -0.5 -0.1 -2.1 -0.8 -3.8 -1.6z m0.5 -4.4 c0 -0.5 -0.9 -1 -2.1 -1 -1.1 0 -1.7 0.5 -1.4 1 0.3 0.6 1.3 1 2.1 1 0.8 0 1.4 -0.4 1.4 -1z"/>
  <path d="M81.8 61.8 c-0.2 -1.7 -1.2 -2.4 -3.3 -2.8 -2.9 -0.5 -3 -0.7 -3.3 -7 -0.2 -3.5 0 -7.5 0.3 -8.9 l0.6 -2.4 1.5 2.2 c1.1 1.5 2.2 1.9 3.8 1.5 2.2 -0.5 2.2 -0.4 2.2 9.5 -0.1 5.6 -0.4 10.1 -0.8 10.1 -0.4 0 -0.8 -1 -1 -2.2z m0 -7 c-0.7 -1.9 -3.8 -2.2 -3.8 -0.4 0 1 0.9 1.6 2.1 1.6 1.2 0 1.9 -0.5 1.7 -1.2z m-0.8 -6.3 c-0.7 -0.8 -1.6 -1.5 -2.1 -1.5 -0.5 0 -0.9 0.7 -0.9 1.5 0 0.9 0.9 1.5 2.1 1.5 1.8 0 1.9 -0.2 0.9 -1.5z"/>
  <path d="M0.5 56.3 c0.9 -7.5 4.1 -17.8 7 -22.8 4.5 -7.7 8.4 -12.5 9.9 -11.9 1.1 0.4 0.3 2.3 -3.6 7.9 -5 7.5 -9.7 18.8 -9.8 23.6 0 5 -1.2 8.9 -2.7 8.9 -1.3 0 -1.4 -1 -0.8 -5.7z"/>
  <path d="M122.5 58.3 c-2.2 -14.2 -5.8 -23.4 -12.8 -32.3 -2.6 -3.2 -3.3 -4.7 -2.4 -5.2 2.8 -1.9 12.8 13.9 16 25.2 0.9 3 1.9 7.9 2.3 10.8 0.5 4.4 0.4 5.2 -0.9 5.2 -1.1 0 -1.8 -1.2 -2.2 -3.7z"/>
  <path d="M107 57.2 c0 -2.2 11.1 -3.5 11.8 -1.4 0.2 0.7 -0.6 1.2 -2 1.2 -1.2 0 -4 0.3 -6 0.6 -2.4 0.4 -3.8 0.3 -3.8 -0.4z"/>
  <path d="M34.2 55.3 c-0.9 -0.3 -1 -0.9 -0.3 -1.7 0.6 -0.7 1.1 -4.8 1.3 -9.1 l0.3 -8 8.1 -0.5 c4.5 -0.3 8.8 -1.1 9.6 -1.8 1.3 -1 1.7 -1 2.1 0.2 1.1 2.8 -2.6 4.6 -9.6 4.6 l-6.7 0 0 6.8 c0 5.3 -0.4 7.2 -1.7 8.4 -1 0.9 -2.4 1.3 -3.1 1.1z"/>
  <path d="M88.7 54.2 c-1.2 -1.3 -1.7 -3.7 -1.7 -8.5 l0 -6.7 -6.7 0 c-7 0 -10.7 -1.8 -9.6 -4.6 0.4 -1.2 0.8 -1.1 2.6 0.1 1.4 1 4.6 1.5 9.3 1.5 l7.2 0 0.4 9.8 c0.3 5.3 0.4 9.8 0.3 10 -0.1 0.1 -0.9 -0.6 -1.8 -1.6z"/>
  <path d="M105.8 50.5 c-0.9 -1.9 -0.9 -2.8 0 -3.7 0.9 -0.9 1.2 -0.7 1.2 0.9 0 3.7 2 3.6 3.5 -0.1 1 -2.4 2.2 -3.6 3.5 -3.6 2.5 0 4.7 3.7 3.1 5.3 -0.8 0.8 -1.1 0.6 -1.1 -0.5 0 -3.3 -2.1 -2.9 -3.5 0.6 -1.8 4.4 -5 4.8 -6.7 1.1z"/>
  <path d="M14 49 c-2.5 -1 -4.5 -2.4 -4.5 -3.1 0 -0.8 2 -2 4.5 -2.8 l4.4 -1.4 -3.2 -1.5 c-2.9 -1.4 -4.3 -3.2 -2.4 -3.2 2.3 0 10.2 3.6 10.2 4.7 0 0.7 -2 1.8 -4.5 2.5 -2.5 0.7 -4.5 1.5 -4.5 1.8 0 0.3 1.4 1.1 3 1.7 1.7 0.6 3 1.6 3 2.2 0 1.4 -0.5 1.3 -6 -0.9z"/>
  <path d="M103.6 44.2 c-0.4 -0.6 0.1 -2.3 1 -3.7 1.7 -2.6 0.8 -3.5 -1.4 -1.3 -0.9 0.9 -1.5 0.9 -2.3 0.1 -0.7 -0.7 0.3 -1.8 3.7 -3.7 5.7 -3.2 6.2 -3.2 7.6 -0.2 1.4 3.3 0.4 5.6 -2.5 5.6 -1.4 0 -3.1 0.9 -3.9 2.2 -1 1.5 -1.7 1.8 -2.2 1z m7.4 -6.7 c0 -0.8 -0.7 -1.5 -1.5 -1.5 -0.8 0 -1.5 0.7 -1.5 1.5 0 0.8 0.7 1.5 1.5 1.5 0.8 0 1.5 -0.7 1.5 -1.5z"/>
  <path d="M19.5 35.6 c-4 -3.5 -4.4 -5.7 -0.6 -3.7 1.9 1.1 2 1 1 -1.5 -0.6 -1.7 -0.6 -3.1 -0.1 -3.6 0.6 -0.6 1.4 0.3 2 2.1 1.1 3 2.8 3.7 7.1 3.2 0.7 -0.2 1 0.2 0.6 0.8 -0.3 0.6 -2.3 1.1 -4.3 1.1 -3.6 0 -3.6 0 -1.4 1.6 1.2 0.8 2 2 1.7 2.5 -0.9 1.4 -1.7 1.1 -6 -2.5z"/>
  <path d="M96.6 33.8 c-2.2 -3.1 -2.1 -3.2 2.5 -6.9 l4.1 -3.2 2.1 2.1 c2.3 2.4 1.7 4.2 -0.8 2.2 -1.9 -1.5 -3.4 -0.5 -1.7 1.2 0.7 0.7 1.2 1.6 1.2 2 0 1.3 -2.8 0.9 -3.3 -0.4 -0.4 -1 -0.7 -1 -1.8 0 -1 0.9 -1 1.5 -0.1 2.4 0.7 0.7 1.2 1.6 1.2 2 0 1.6 -1.9 0.8 -3.4 -1.4z"/>
  <path d="M30.5 30.1 c-0.3 -0.6 -1.2 -3.1 -2 -5.7 -2.2 -7.4 -0.8 -8.1 6.7 -3.3 3.3 2.1 4.5 3.4 3.7 4 -0.7 0.4 -1.8 0.5 -2.6 0.2 -1.8 -0.7 -4.5 1.7 -3.9 3.3 0.6 1.6 -1 2.8 -1.9 1.5z m2.5 -6.5 c0 -0.8 -0.7 -1.6 -1.5 -2 -1.7 -0.6 -1.8 -0.4 -0.9 1.8 0.8 2 2.4 2.1 2.4 0.2z"/>
  <path d="M88.6 26.2 c-0.3 -0.5 0.3 -3.5 1.3 -6.7 1 -3.7 2 -5.5 2.5 -4.7 0.4 0.7 0.5 2.1 0.2 3.2 -0.3 1.1 -0.9 3 -1.2 4.1 -0.6 2 -0.4 2 3 -0.6 2.5 -1.9 4 -2.5 4.7 -1.8 0.7 0.7 -0.6 2 -3.9 4.2 -5.2 3.3 -5.8 3.5 -6.6 2.3z"/>
  <path d="M39.1 18.4 c-1.4 -3.1 -1.9 -5 -1.2 -5.7 0.6 -0.6 1.8 0.8 3.5 4.1 3 5.9 3.1 6.2 1.3 6.2 -0.7 0 -2.3 -2.1 -3.6 -4.6z"/>
  <path d="M81.6 22.2 c-0.8 -1.3 3.6 -10.2 5 -10.2 1.9 0 1.8 0.3 -1.1 6 -2.6 5.1 -3 5.6 -3.9 4.2z"/>
  <path d="M75.1 17.9 c-1.2 -1.9 -2.1 -4 -2.1 -4.6 0 -0.7 -0.4 -1.3 -1 -1.3 -0.5 0 -1 0.8 -1 1.8 0 2.2 -1.7 4.8 -2.6 4 -1 -1.1 1.7 -10.8 3.1 -10.8 0.7 0 2.2 2.1 3.3 4.8 l2 4.7 0.7 -3.3 c0.7 -3.1 2.1 -4.9 3.1 -3.9 0.6 0.6 -1.6 9.9 -2.7 11.1 -0.4 0.5 -1.7 -0.7 -2.8 -2.5z"/>
  <path d="M100 16.4 c-11.5 -8.9 -22.1 -12.4 -37 -12.4 -14.7 0 -24.5 3.2 -36.1 11.6 -3.8 2.8 -4.8 3.1 -5.3 1.9 -1.3 -3.5 17 -13.4 29.6 -15.9 9.7 -2 13.9 -2 23.6 -0.1 12.9 2.6 32.7 13.7 30.4 17.2 -0.5 0.8 -2.1 0.1 -5.2 -2.3z"/>
  <path d="M55.6 17.4 c-2 -1.9 -2.3 -10.8 -0.3 -10.2 0.6 0.3 1.4 2.4 1.7 4.9 0.6 4.9 2.8 6 4.5 2.2 1.3 -3 2.5 -2.9 2.5 0.2 0 4 -5.4 5.9 -8.4 2.9z"/>
 </g>
 <g fill="#8c3f73">
  <path d="M47.1 123 c-4 -1.1 -9.8 -3.2 -12.8 -4.7 -22.6 -11.4 -36.9 -38.2 -33.3 -62.5 2.9 -20 12 -34.6 27.9 -45 23.7 -15.5 54.6 -13 76.3 6.2 14.2 12.5 22.4 34.6 19.7 53.7 -3.9 28 -26.1 50.4 -53.1 53.7 -6.5 0.8 -8.3 -0.9 -2 -1.9 14.9 -2.5 25.4 -7.7 35.3 -17.5 19.7 -19.5 23.4 -48.5 9.4 -72.6 -1.5 -2.7 -6 -8.1 -9.9 -11.9 -23.6 -23.3 -59.8 -23.2 -83.6 0.4 -13 12.8 -18.9 28.1 -17.7 45.9 1 15.6 7.4 29 19.1 39.9 9.6 8.8 19.6 13.5 33.9 15.8 2 0.3 3.7 1 3.7 1.5 0 1.5 -4.7 1.1 -12.9 -1z"/>
  <path d="M52 117.2 c0 -0.5 0.9 -0.8 2 -0.8 3 0.1 2.9 -1.9 -0.2 -2.2 -3.1 -0.4 -4.2 -2.3 -2.5 -4.6 1.5 -2 8.3 -1.1 9.1 1.1 1.2 2.9 -1.7 6.8 -5.2 7.1 -1.7 0.2 -3.2 -0.1 -3.2 -0.6z m6.8 -5.4 c-0.5 -1.5 -6.8 -2.4 -6.8 -1 0 1.5 1.3 2.2 4.3 2.2 1.8 0 2.7 -0.4 2.5 -1.2z"/>
  <path d="M68 114.6 c0 -2.5 -0.5 -3.6 -1.7 -3.9 -1.7 -0.4 -1.7 -0.4 0 -1.2 2.3 -1 2.5 -0.7 3.3 4.3 0.4 2.8 0.3 4.2 -0.5 4.2 -0.6 0 -1.1 -1.5 -1.1 -3.4z"/>
  <path d="M81.9 113.9 c3 -2.4 2.3 -3.3 -1.4 -1.9 -2.2 0.9 -3.2 0.8 -4.3 -0.4 -2.1 -2.1 -0.9 -4.2 3.4 -5.6 3.3 -1.1 3.9 -1.1 5.1 0.6 0.7 1 1.3 2.6 1.3 3.6 0 1.9 -3.7 5.8 -5.4 5.8 -0.6 -0.1 0 -1 1.3 -2.1z m0.2 -4 c2.2 -1.1 1.7 -2.9 -0.9 -2.9 -2.5 0 -4.6 1.6 -3.8 2.9 0.9 1.4 2.2 1.4 4.7 0z"/>
  <path d="M41.5 112 c0.4 -1.4 0.8 -3.7 0.8 -5.1 0 -2 0.4 -2.5 1.8 -2.2 1.6 0.5 1.6 0.8 0.2 4.1 -1.8 4.5 -3.9 6.9 -2.8 3.2z"/>
  <path d="M57.5 104 c-18.4 -2.7 -32.2 -16.2 -35.7 -34.9 -2.3 -12.4 2.7 -26.6 12.8 -36.1 16.2 -15.3 40.1 -15.4 56.5 -0.3 13.5 12.6 17.3 31.8 9.4 48 -7.8 15.8 -26 25.7 -43 23.3z m19.5 -4.9 c21.4 -8 30.9 -33.3 20.5 -54.1 -5.1 -10.2 -18.2 -19.3 -29.5 -20.6 l-5.5 -0.6 6.8 6.7 c3.7 3.7 6.7 6.9 6.7 7.1 0 0.2 -0.8 0.4 -1.7 0.4 -1 0 -3.9 -2.1 -6.5 -4.7 l-4.8 -4.7 -4.8 4.7 c-2.6 2.6 -5.5 4.7 -6.5 4.7 -0.9 0 -1.7 -0.2 -1.7 -0.4 0 -0.3 2.7 -3 6 -6.2 3.3 -3.1 6 -6.1 6 -6.7 0 -1.6 -9.1 0.3 -15.5 3.2 -28.4 13.1 -30 52.8 -2.8 68.8 9.5 5.6 22.4 6.5 33.3 2.4z"/>
  <path d="M56.5 95 l-4.9 -5 -7.8 0 -7.8 0 0 -3 c0 -1.6 0.5 -3 1 -3 0.6 0 1 0.7 1 1.5 0 1.2 1.5 1.5 7.2 1.5 l7.2 0 5.3 5.2 5.3 5.2 5.3 -5.2 5.3 -5.2 7.2 0 c5.7 0 7.2 -0.3 7.2 -1.5 0 -0.8 0.5 -1.5 1 -1.5 0.6 0 1 1.4 1 3 l0 3 -7.8 0 -7.8 0 -4.9 5 c-2.7 2.8 -5.6 5 -6.5 5 -0.9 0 -3.8 -2.2 -6.5 -5z"/>
  <path d="M50 82 c0 -1.1 0.5 -2 1 -2 0.6 0 1 0.9 1 2 0 1.1 -0.4 2 -1 2 -0.5 0 -1 -0.9 -1 -2z"/>
  <path d="M68 83.6 c0 -0.2 0.7 -2 1.5 -4 1.1 -2.5 1.5 -6.1 1.3 -11.1 -0.2 -4.6 0.1 -7.4 0.7 -7.2 2.5 0.6 0 22.7 -2.6 22.7 -0.5 0 -0.9 -0.2 -0.9 -0.4z"/>
  <path d="M63.4 79.8 c2 -7.1 2.8 -14.5 2.4 -24.5 -0.3 -10.5 0.1 -12.9 1.7 -10.3 0.9 1.4 3.5 -0.7 3.5 -2.7 0 -0.8 0.5 -1.1 1 -0.8 1.5 0.9 1.3 16.5 -0.2 16.5 -3.1 0.1 -4.1 2 -4.4 7.9 -0.3 7.5 -2.2 16.1 -3.6 16.1 -0.6 0 -0.8 -1 -0.4 -2.2z m7.4 -25.6 c0.2 -1.5 -0.2 -2.2 -1.2 -2.2 -1.1 0 -1.6 0.9 -1.6 2.6 0 3.1 2.3 2.8 2.8 -0.4z m0.2 -5.8 c0 -0.9 -0.7 -1.4 -1.7 -1.2 -2.5 0.5 -2.8 2.8 -0.4 2.8 1.2 0 2.1 -0.6 2.1 -1.6z"/>
  <path d="M76.7 81.3 c-0.3 -0.5 -0.7 -5.4 -0.8 -10.9 -0.1 -7.8 0.1 -9.9 1.2 -9.9 1.1 0 1.3 2.1 1.1 10.5 -0.3 10.5 -0.5 11.9 -1.5 10.3z"/>
  <path d="M82.9 81.8 c-0.1 -0.2 -0.4 -5.2 -0.8 -11.3 l-0.6 -11 -2.7 -0.3 -2.8 -0.3 0 -8.6 c0 -8.4 0 -8.6 1.9 -6.9 1 1 2.6 1.6 3.5 1.4 1.4 -0.3 1.6 1.9 2.1 16.7 0.3 9.4 0.8 17.8 1.1 18.8 0.3 0.9 0.1 1.7 -0.5 1.7 -0.6 0 -1.2 -0.1 -1.2 -0.2z m-1.1 -26.9 c0.4 -2 -2.8 -3.4 -3.9 -1.8 -1.1 1.8 0.1 4 2 3.7 0.9 -0.2 1.7 -1 1.9 -1.9z m0.2 -5.9 c0 -1.5 -3.8 -3.2 -4.5 -2 -0.3 0.5 -0.3 1.5 0 2 0.8 1.3 4.5 1.3 4.5 0z"/>
  <path d="M41.5 79.7 c-0.4 -1 -0.5 -2.1 -0.1 -2.4 1 -1 1.8 0.4 1.3 2.4 -0.4 1.7 -0.4 1.7 -1.2 0z"/>
  <path d="M59 69.1 c0 -6.1 -0.4 -11.2 -0.9 -11.5 -0.4 -0.3 -1.7 0.2 -2.7 1 -1.4 1.1 -1.5 1.7 -0.6 2 1.9 0.9 1.4 2.4 -0.8 2.4 -2.7 0 -2.5 2.6 0.3 3.4 l2.2 0.7 -2.2 0.9 c-1.3 0.5 -2.3 1.6 -2.3 2.5 0 0.8 -0.4 1.5 -1 1.5 -0.5 0 -1 -0.7 -1 -1.5 0 -0.9 -1 -2 -2.2 -2.4 -2 -0.8 -2.1 -1 -0.5 -1.6 2.1 -0.9 2.3 -3.5 0.3 -3.5 -0.8 0 -1.6 -1 -1.8 -2.2 -0.2 -1.2 -0.9 -2.3 -1.5 -2.6 -1 -0.3 -1.3 1.8 -1.3 8.2 0 4.7 -0.4 8.6 -0.9 8.6 -0.5 0 -1.1 -4.2 -1.3 -9.2 -0.3 -10.2 0.4 -11.8 5.3 -11.8 4.1 0 4.5 -2.7 0.4 -3.4 -3.8 -0.8 -4.6 -2.1 -3.2 -5.6 l1 -2.5 0.6 3 c0.4 2.1 1.2 3 2.6 3 1.6 0 2.1 -0.8 2.3 -3.7 0.2 -2.1 0.7 -3.8 1.2 -3.8 0.5 0 1 1.7 1.2 3.8 0.2 2.9 0.7 3.7 2.3 3.7 1.6 0 2 -0.6 1.8 -2.8 -0.1 -1.8 0.2 -2.7 1 -2.4 0.7 0.2 1.2 1.7 1.2 3.3 0 2.4 -0.5 3.1 -3.2 3.9 -4.6 1.3 -4.3 3.5 0.6 3.5 3.2 0 4 0.4 4.5 2.3 1 3.8 0.7 23.7 -0.4 23.7 -0.6 0 -1 -4.3 -1 -10.9z m-6.2 -10.1 c2 -3.3 1.9 -3.5 -2.1 -3.6 -4.5 -0.1 -5.5 1 -3.1 3.7 2.2 2.4 3.6 2.4 5.2 -0.1z"/>
  <path d="M36 75.8 c0 -0.7 -2.6 -3.8 -5.7 -7 l-5.7 -5.7 6 -6.5 c3.2 -3.5 6.2 -6.4 6.7 -6.5 2.2 -0.3 0.1 3.9 -4 8.1 l-4.7 4.8 4.7 4.8 c4.3 4.4 6.3 9.2 3.7 9.2 -0.5 0 -1 -0.5 -1 -1.2z"/>
  <path d="M88 74.8 c0 -1.3 2 -4.2 4.7 -7 l4.7 -4.8 -4.7 -4.8 c-4.3 -4.4 -6.3 -9.2 -3.7 -9.2 0.6 0 1 0.5 1 1.2 0 0.7 2.6 3.8 5.7 7 l5.7 5.8 -5.7 5.8 c-3.1 3.2 -5.7 6.3 -5.7 7 0 0.7 -0.4 1.2 -1 1.2 -0.5 0 -1 -1 -1 -2.2z"/>
  <path d="M36 39 c0 -2.7 0.3 -3 3 -3 1.7 0 3 0.5 3 1 0 0.6 -0.7 1 -1.6 1 -0.9 0 -1.8 0.9 -2.1 2 -0.8 3 -2.3 2.4 -2.3 -1z"/>
  <path d="M87 38.5 l-2.3 -2.5 2.6 0 c2.2 0 2.7 0.5 2.7 2.5 0 1.4 -0.1 2.5 -0.3 2.5 -0.2 0 -1.4 -1.1 -2.7 -2.5z"/>
  <path d="M22.5 96 c-0.4 -0.6 -0.3 -1.6 0.3 -2.2 0.6 -0.6 1.2 -0.6 1.7 0.2 0.4 0.6 0.3 1.6 -0.3 2.2 -0.6 0.6 -1.2 0.6 -1.7 -0.2z"/>
  <path d="M100.5 95.1 c-0.3 -0.5 -0.1 -1.2 0.5 -1.6 1.2 -0.7 3 0.2 3 1.6 0 1.2 -2.7 1.2 -3.5 0z"/>
  <path d="M113 77.5 c-1.3 -1.4 -3.2 -2.5 -4.2 -2.5 -1 0 -1.8 -0.4 -1.8 -0.9 0 -0.8 11.1 -2.3 11.9 -1.6 0.2 0.3 -0.9 0.9 -2.4 1.5 -2.6 1 -2.7 1.2 -1.1 2.9 3.4 3.7 1.1 4.3 -2.4 0.6z"/>
  <path d="M8 76.8 c0 -0.8 1.4 -2.7 3 -4.3 3.9 -3.7 3.8 -4.5 -0.5 -3.8 -2.1 0.3 -3.5 0.2 -3.5 -0.5 0 -1.1 9.8 -2.8 10.7 -1.8 0.3 0.3 -1 2.5 -3 5 l-3.7 4.4 3.7 -0.9 c2.1 -0.4 4 -0.6 4.2 -0.3 0.9 0.9 -2.3 2.4 -5.1 2.4 -1.4 0 -3.3 0.3 -4.2 0.6 -1 0.4 -1.6 0.1 -1.6 -0.8z"/>
  <path d="M117.6 66.5 c-0.3 -1 -1.9 -1.5 -4.6 -1.5 -2.2 0 -4 -0.4 -4 -1 0 -0.5 2 -1 4.4 -1 3.4 0 4.6 -0.4 4.9 -1.7 0.3 -1 0.5 0.1 0.6 2.5 0.1 4.4 -0.3 5.2 -1.3 2.7z"/>
  <path d="M11.3 60.7 c-2.4 -1.1 -4.3 -2.7 -4.3 -3.4 0 -0.7 2.3 -1.9 5.2 -2.8 6.2 -1.8 7.9 -1.9 5.7 -0.2 -2.6 2 -3.1 4.8 -1.3 6.8 2.3 2.6 0.2 2.4 -5.3 -0.4z m2.7 -3.3 c0 -1.1 -0.5 -1.4 -1.6 -1 -0.9 0.3 -2.1 0.6 -2.7 0.6 -1.6 0 1.4 2 3.1 2 0.6 0 1.2 -0.7 1.2 -1.6z"/>
  <path d="M108 57.1 c0 -0.9 4.8 -2.1 8.8 -2.1 1.5 0 2.2 0.4 1.7 0.9 -1.4 1.2 -10.5 2.3 -10.5 1.2z"/>
  <path d="M107.4 52.2 c-1.5 -1 -2.5 -4.2 -1.7 -5.5 0.4 -0.7 0.9 -0.3 1.3 1.2 0.9 3.8 2.7 3.6 4 -0.3 0.6 -2 1.7 -3.6 2.4 -3.6 1.9 0 3.6 2.2 3.5 4.5 0 1.9 -0.1 1.9 -0.9 -0.2 -1.3 -3.1 -2.8 -2.9 -3.6 0.5 -0.6 2.4 -2 4.2 -3.4 4.2 -0.3 0 -1 -0.4 -1.6 -0.8z"/>
  <path d="M12.7 48.3 c-4.7 -2 -4.3 -3.4 1.3 -5 5.7 -1.7 5.9 -2.1 2.2 -3.4 -1.8 -0.6 -3.2 -1.5 -3.2 -2 0 -1.2 0.2 -1.2 5.4 1.1 2.5 1 4.6 2.4 4.6 2.9 0 1 -6.1 3.1 -8.7 3.1 -2.5 0 -1.3 1.5 2.5 3.2 4.8 2.1 1.1 2.2 -4.1 0.1z"/>
  <path d="M104 43.5 c0 -1.2 0.5 -2.6 1.2 -3.3 1.7 -1.7 0.3 -2.5 -2.2 -1.2 -4.1 2.2 -1.7 -1.3 2.6 -3.7 4.9 -2.8 5.2 -2.8 6.6 0.2 1.4 3 -0.5 5.9 -3.3 5 -1.3 -0.4 -2.2 0.2 -3.3 2.2 -1.3 2.4 -1.5 2.5 -1.6 0.8z m7 -5.8 c0 -0.8 -0.3 -1.7 -0.7 -2 -0.9 -0.9 -3.4 1.3 -2.7 2.4 0.8 1.4 3.4 1.1 3.4 -0.4z"/>
  <path d="M20.2 35.9 c-4 -2.9 -5.3 -4.9 -3.3 -4.9 0.6 0 1.3 0.5 1.6 1 1.3 2.1 2.4 0.8 1.9 -2.2 l-0.5 -3.3 1.6 2.8 c1.2 2.1 2.3 2.7 5.1 2.7 2.3 0 3.3 0.4 2.8 1.1 -0.4 0.7 -2.1 0.9 -4 0.6 -3.9 -0.7 -4.4 0.4 -1.2 2.5 1.3 0.9 1.7 1.7 1.1 2.1 -0.5 0.3 -2.9 -0.7 -5.1 -2.4z"/>
  <path d="M96.4 32.9 c-1.8 -2 -1.8 -2.1 2.1 -5.4 2.2 -1.9 4.3 -3.4 4.6 -3.5 1.2 0 4.2 4 3.4 4.8 -0.4 0.4 -1 0.1 -1.2 -0.5 -0.6 -1.7 -3.3 -1.7 -3.3 0 0 0.7 0.5 1.8 1.2 2.5 0.7 0.7 0.8 1.2 0.2 1.2 -0.5 0 -1.5 -0.5 -2.1 -1.1 -0.7 -0.7 -1.9 -0.9 -2.9 -0.5 -1.6 0.6 -1.6 0.8 0.1 2.6 1 1.1 1.4 2 0.8 2 -0.5 0 -1.8 -0.9 -2.9 -2.1z"/>
  <path d="M30.3 29 c-1.6 -3.9 -2.5 -8.8 -1.8 -10 0.4 -0.7 2.5 0 5.6 1.7 5.4 3.1 6.1 4.3 2.5 4.3 -2.6 0 -4.1 1.4 -4.8 4.5 -0.4 1.8 -0.6 1.8 -1.5 -0.5z m3.1 -4.9 c0.7 -1 -2.2 -3.7 -3 -2.8 -0.9 0.8 0.3 3.7 1.5 3.7 0.5 0 1.2 -0.4 1.5 -0.9z"/>
  <path d="M88.8 26.5 c-0.8 -0.8 2.4 -11.5 3.5 -11.5 0.5 0 0.7 1 0.3 2.3 -0.3 1.2 -0.9 3.3 -1.3 4.6 l-0.6 2.5 2.9 -2.1 c4.5 -3.1 5.4 -3.5 5.4 -2.4 0 0.5 -2 2.4 -4.4 4.1 -4.7 3.2 -5 3.3 -5.8 2.5z"/>
  <path d="M41.3 21.8 c-2.4 -3 -4.4 -8.1 -3.6 -8.9 0.6 -0.6 1.9 1.1 3.3 4.1 2.2 4.8 2.4 7.4 0.3 4.8z"/>
  <path d="M82 21.8 c0 -2.1 3.2 -9.8 4.1 -9.8 1.3 0 1.1 1.3 -1.1 6.4 -2.1 4.6 -3 5.7 -3 3.4z"/>
  <path d="M73.9 15.3 l-2.2 -4.8 -0.9 3.8 c-0.6 2 -1.4 3.7 -1.9 3.7 -1.1 0 -1.1 0.1 0.2 -6 1.5 -7 2.7 -6.7 6 1.5 l1.7 4 1.1 -4.3 c0.7 -2.3 1.6 -4 2 -3.7 1.2 0.7 -1.2 9.8 -2.6 10.2 -0.6 0.2 -2.1 -1.7 -3.4 -4.4z"/>
  <path d="M55.1 16.1 c-1.4 -2.5 -1.4 -9.1 -0.1 -9.1 0.6 0 1 1.1 1 2.4 0 6.1 4.4 10.4 5.7 5.6 0.7 -2.7 2.5 -2.5 2.1 0.3 -0.4 3.1 -7.1 3.8 -8.7 0.8z"/>
 </g>
 <g fill="#7e1359">
  <path d="M48 122.9 c-11.3 -2.9 -19.4 -7.3 -27.4 -14.9 -18.1 -17.2 -24.3 -41 -16.7 -63.9 1.7 -5.1 4.8 -11.8 6.9 -15 7.6 -11.4 20.6 -21.3 33.7 -25.4 9.9 -3.1 27.1 -3.1 37 0 18.4 5.8 33.3 20.2 40.3 39.1 1.8 5 2.6 9.3 3 17.2 0.5 12.5 -1 19.7 -6.5 30.9 -4.8 9.9 -16.9 22.3 -26.3 26.9 -14.2 7 -29.8 8.8 -44 5.1z m28.5 -1.5 c21.9 -5.6 39.5 -22.9 45 -44.1 2 -7.6 1.9 -22.5 -0.1 -29.4 -2.9 -9.6 -7.6 -18 -14.5 -25.3 -21.9 -23.4 -56.5 -26.2 -81 -6.6 -15.3 12.3 -23 28.1 -23 47 0 19 8.2 35.5 23.6 47.6 13.7 10.6 34 15 50 10.8z"/>
  <path d="M54.3 117.3 c2.9 -0.5 5.2 -3.6 4.3 -5.9 -0.7 -1.9 -6.6 -1.9 -6.6 0 0 0.8 0.7 1.7 1.5 1.9 1.1 0.4 1 0.4 -0.2 0.3 -1.1 -0.1 -1.9 -1.1 -2.1 -2.4 -0.3 -2.2 0 -2.3 4 -2 3.9 0.3 4.3 0.5 4.6 3.3 0.4 3.4 -1.9 5.6 -5.7 5.4 -2.6 -0.2 -2.6 -0.2 0.2 -0.6z"/>
  <path d="M68.7 117.3 c-0.4 -0.3 -0.7 -1.9 -0.7 -3.5 0 -1.5 -0.5 -2.8 -1.1 -2.8 -0.5 0 -0.7 -0.4 -0.4 -1 1.2 -2 2.3 -0.9 2.9 3.1 0.7 4.2 0.5 5.4 -0.7 4.2z"/>
  <path d="M81.8 114.5 c3.3 -2.6 2.7 -3.6 -1.8 -2.9 -3.6 0.6 -4 0.4 -4 -1.4 0 -2 3.6 -4.9 4.7 -3.9 0.2 0.3 -0.5 0.8 -1.6 1.2 -2.6 0.8 -2.8 3.5 -0.3 3.5 1 0 2.7 -0.6 3.7 -1.4 1.6 -1.2 1.7 -1.6 0.6 -3 -0.9 -1.1 -1 -1.6 -0.2 -1.6 0.6 0 1.7 1.2 2.3 2.6 1.4 3 0.5 5 -3.3 7.2 l-2.4 1.5 2.3 -1.8z"/>
  <path d="M41 112.5 c0 -0.4 0.7 -1.9 1.5 -3.4 0.8 -1.6 1.1 -3.1 0.8 -3.5 -0.4 -0.3 -0.1 -0.6 0.5 -0.6 1.6 0 1.5 1.5 -0.3 5 -1.4 2.8 -2.5 3.8 -2.5 2.5z"/>
  <path d="M50.4 102.2 c-11.3 -4 -20 -11.7 -25.2 -22.2 -2.5 -5 -2.7 -6.5 -2.7 -17 0 -10.6 0.2 -12 2.8 -17.2 4.3 -8.8 10.7 -15.2 19.5 -19.5 7.3 -3.7 8 -3.8 18.1 -3.8 9.8 0 11.1 0.2 17.3 3.2 8.9 4.2 14.8 9.8 19.4 18.6 3.9 7.2 3.9 7.3 3.9 18.7 0 11.2 -0.1 11.7 -3.5 18 -4.5 8.5 -11.4 15.1 -19.8 19.2 -5.7 2.7 -8 3.2 -15.7 3.5 -6.8 0.3 -10.2 -0.1 -14.1 -1.5z m29.1 -4 c8.1 -3.8 15.2 -10.9 19.2 -19.1 2.5 -5 2.8 -6.7 2.8 -16.1 0 -9.6 -0.3 -11 -2.9 -16.4 -3.7 -7.6 -11.6 -15.5 -19.2 -19.2 -5.4 -2.6 -6.8 -2.9 -16.5 -2.9 -10 0 -10.8 0.2 -17.3 3.4 -7.9 4.1 -14.7 11.1 -18.5 19.1 -2.3 4.8 -2.6 6.8 -2.6 16 0 9.4 0.3 11.1 2.7 16 7.5 15.3 20.7 23.3 37.3 22.7 6.6 -0.3 9.3 -0.9 15 -3.5z"/>
  <path d="M57.5 95 l-4.9 -5 -8.3 0 -8.3 0 0 -8.3 0 -8.3 -5.5 -5.4 -5.5 -5.4 5.5 -5.6 5.5 -5.6 0 -7.7 0 -7.7 7.8 0 7.7 0 5.3 -5 c2.9 -2.8 5.5 -5 5.9 -5 0.4 0 2.9 2.1 5.5 4.7 l4.9 4.8 8.2 0.5 8.2 0.5 0.3 8 0.2 8 5.5 5 5.5 5.1 -5.5 5.4 -5.5 5.4 0 8.3 0 8.3 -8.3 0 -8.3 0 -4.9 5 c-2.7 2.8 -5.2 5 -5.5 5 -0.3 0 -2.8 -2.2 -5.5 -5z m10.5 -2.5 c4.3 -4.4 4.4 -4.4 11.9 -4.7 l7.6 -0.3 0.3 -6.9 c0.3 -6.7 0.5 -7.1 5.2 -12.6 l4.9 -5.7 -4.9 -4.8 c-4.9 -4.8 -4.9 -4.9 -5.2 -11.9 l-0.3 -7.1 -7.1 -0.3 c-6.9 -0.3 -7.2 -0.4 -11.4 -4.7 -2.4 -2.5 -5.1 -4.5 -6 -4.5 -0.9 0 -3.6 2 -6 4.5 l-4.4 4.5 -7.3 0 -7.3 0 0 7.2 0 7.2 -5.2 5.3 -5.2 5.3 5.1 5.3 c5.2 5.2 5.2 5.3 5.5 12.2 l0.3 7 7.1 0.3 c6.9 0.3 7.2 0.4 11.4 4.7 2.4 2.5 4.9 4.5 5.5 4.5 0.6 0 3.1 -2 5.5 -4.5z"/>
  <path d="M50.8 83.4 c-0.5 -0.4 -0.8 -4 -0.8 -8.1 0 -6.9 -0.1 -7.3 -2.2 -7.4 l-2.3 0 2.3 -0.9 c2.7 -1.2 2.9 -3 0.2 -3.7 -1.3 -0.3 -2 -1.4 -2 -2.8 0 -1.3 -0.7 -2.5 -1.5 -2.9 -2.2 -0.8 -2.8 3.2 -2 13.5 0.4 6.1 0.3 8.9 -0.4 8.9 -0.7 0 -1.2 -3.9 -1.2 -11 -0.1 -6 -0.2 -11.6 -0.3 -12.2 -0.1 -0.7 1.9 -1.8 4.4 -2.4 5.2 -1.2 6 -3.6 1.5 -4.4 -2.2 -0.4 -3.1 -1.1 -3.3 -2.9 -0.2 -1.3 0.2 -2.8 0.8 -3.5 0.9 -0.8 1.1 -0.6 1 0.9 -0.4 3.9 0 4.6 2.3 4.3 1.6 -0.2 2.3 -1.1 2.5 -3.3 0.2 -1.6 0.8 -3.4 1.4 -4 0.7 -0.7 0.9 -0.2 0.4 1.7 -0.9 3.7 0.2 5.8 3 5.8 2 0 2.4 -0.5 2.5 -3.2 0 -3.1 0.1 -3.1 1.1 -1.1 1.6 3.2 0.3 5.3 -3.2 5.3 -2.3 0 -3 0.4 -3 2 0 1.6 0.7 2 3.5 2 4.8 0 5.6 2.3 5.3 15.8 l-0.2 10.7 -0.3 -9.5 c-0.4 -11.3 -0.9 -14 -2.7 -14 -2 0 -4.5 3.2 -2.8 3.7 1.9 0.7 1.4 2.1 -1 2.5 -3 0.4 -3.4 2.6 -0.6 3.7 1.6 0.7 1.8 1 0.6 1 -1.5 0.1 -1.8 1.4 -2 8.2 -0.2 4.4 -0.6 7.7 -1 7.3z m2.1 -23.9 c2.8 -3.3 2 -4.5 -3 -4.5 -4.3 0 -4.7 0.8 -2.3 4.5 2 3.1 2.5 3.1 5.3 0z"/>
  <path d="M69.6 80.9 c0.5 -1.3 0.9 -6.3 0.9 -11.2 0 -5.6 0.4 -8.7 1.1 -8.7 2 0 0.4 20.3 -1.7 21.6 -0.8 0.4 -0.8 -0.1 -0.3 -1.7z"/>
  <path d="M77 75.3 c-0.2 -4 -0.4 -8.8 -0.5 -10.5 -0.2 -1.8 0 -3.7 0.3 -4.3 1.2 -1.9 1.7 5.1 1.1 13.5 l-0.6 8.5 -0.3 -7.2z"/>
  <path d="M83.1 76.3 c0.1 -6.5 0.5 -6.1 1.2 1 0.2 2.6 0.1 4.7 -0.4 4.7 -0.5 0 -0.9 -2.6 -0.8 -5.7z"/>
  <path d="M64.3 77.8 c0.7 -2 1.2 -9.2 1.2 -18.4 0 -14.2 0.1 -15.1 1.8 -14.3 2.1 1.2 3.7 0.4 3.7 -1.7 0 -0.8 0.5 -1.2 1 -0.9 0.6 0.3 1 4 1 8.1 0 6.7 -0.2 7.4 -2 7.4 -2.6 0 -4 2.9 -4 8.4 0 5.6 -1.9 14.6 -3 14.6 -0.5 0 -0.4 -1.5 0.3 -3.2z m7.1 -22.4 c0.7 -1.9 -0.1 -3.4 -1.9 -3.4 -1.8 0 -2.8 1.7 -2.1 3.5 0.7 2 3.2 1.9 4 -0.1z m-0.1 -5.8 c0.7 -1.8 -0.1 -2.6 -2.5 -2.6 -1.8 0 -2.5 2 -1.1 3.3 1.1 1.2 3.1 0.8 3.6 -0.7z"/>
  <path d="M82 60.5 c0 -0.9 -1.2 -1.8 -3 -2.1 l-3 -0.6 0 -8.2 c0.1 -7.2 0.2 -7.9 1.5 -6.2 0.9 1.2 2.2 1.7 3.5 1.3 1.9 -0.5 2 -0.1 2 8.4 0 4.9 -0.2 8.9 -0.5 8.9 -0.3 0 -0.5 -0.7 -0.5 -1.5z m0 -5.5 c0 -2.4 -2.6 -3.8 -4.2 -2.2 -1.6 1.6 -0.2 4.2 2.2 4.2 1.3 0 2 -0.7 2 -2z m0 -5.4 c0 -0.7 -0.7 -1.9 -1.5 -2.6 -1.9 -1.6 -4.1 0.1 -3.2 2.4 0.8 2 4.7 2.1 4.7 0.2z"/>
  <path d="M22 95 c0 -0.5 0.7 -1 1.5 -1 0.8 0 1.5 0.5 1.5 1 0 0.6 -0.7 1 -1.5 1 -0.8 0 -1.5 -0.4 -1.5 -1z"/>
  <path d="M101.2 95.1 c0.4 -1.3 1.8 -1.6 1.9 -0.4 0 0.4 -0.5 0.9 -1.1 1.2 -0.7 0.2 -1.1 -0.2 -0.8 -0.8z"/>
  <path d="M114 77.5 c-1.3 -1.4 -3.4 -2.5 -4.7 -2.5 -1.3 0 -2.3 -0.5 -2.3 -1.1 0 -0.7 0.9 -0.9 2.3 -0.5 1.3 0.3 3.8 0.1 5.5 -0.4 2 -0.5 3.2 -0.5 3.2 0.1 0 0.5 -0.9 0.9 -1.9 0.9 -3 0 -3.4 1.7 -0.9 3.4 1.2 0.9 1.9 1.8 1.7 2.1 -0.3 0.3 -1.6 -0.6 -2.9 -2z"/>
  <path d="M8 76.7 c0 -0.6 1.7 -2.9 3.8 -5 l3.7 -4 -4.5 0.7 c-2.8 0.4 -4.1 0.4 -3.5 -0.2 1.4 -1.3 10.5 -2.5 10.5 -1.5 0 0.5 -1.6 2.4 -3.5 4.3 -1.9 1.9 -3.5 3.7 -3.5 4.1 0 0.4 1.9 0.5 4.3 0.2 5.8 -0.8 4.4 0.3 -2 1.5 -3.7 0.6 -5.3 0.6 -5.3 -0.1z"/>
  <path d="M118 66.5 c0 -1.1 -1.2 -1.5 -5 -1.5 -2.9 0 -5 -0.5 -5 -1.1 0 -0.6 1.5 -0.8 4.4 -0.4 3.6 0.6 4.6 0.4 5.5 -1.2 0.9 -1.5 1 -1.2 1.1 2 0 2 -0.2 3.7 -0.5 3.7 -0.3 0 -0.5 -0.7 -0.5 -1.5z"/>
  <path d="M11.3 60.7 c-2.4 -1.1 -4.3 -2.6 -4.3 -3.2 0 -1.1 10 -4.8 10.8 -4 0.2 0.2 -0.3 1.1 -1.2 2 -1.8 1.8 -2.2 5.5 -0.6 5.5 0.6 0 1 0.5 1 1 0 1.4 -0.9 1.2 -5.7 -1.3z m2.7 -2.7 c0 -2.1 -1.6 -2.6 -3.9 -1.1 -1.1 0.7 -1 1.1 0.5 2 2.7 1.5 3.4 1.4 3.4 -0.9z"/>
  <path d="M108 56.9 c0 -0.5 0.8 -0.9 1.8 -0.9 0.9 0 3.5 -0.3 5.7 -0.7 2.2 -0.3 3.7 -0.3 3.4 0.1 -1 1.1 -10.9 2.4 -10.9 1.5z"/>
  <path d="M107.2 51.8 c-0.7 -0.7 -1.2 -1.7 -1.2 -2.2 0 -0.6 0.4 -0.5 0.9 0.3 1.2 1.9 4.1 0.6 4.1 -1.7 0 -1.1 0.7 -2.5 1.5 -3.2 2 -1.6 4.6 0.4 4.4 3.4 -0.2 2 -0.2 2 -0.6 -0.1 -0.5 -2.7 -3.1 -3 -3.9 -0.5 -1.5 4.7 -3.2 6 -5.2 4z"/>
  <path d="M13.2 48.2 c-2.3 -0.9 -4.1 -2.1 -3.9 -2.7 0.2 -0.5 2.4 -1.4 5 -2 6.1 -1.3 6.5 -2.1 2.3 -3.6 -2 -0.7 -3.6 -1.7 -3.6 -2.1 0 -1.2 1.1 -0.9 5.9 1.6 4 2.1 4.3 2.4 2.5 3.3 -1 0.6 -3.4 1.4 -5.1 1.8 -4.1 0.8 -4.2 2 -0.3 3.4 1.7 0.5 3 1.2 3 1.5 0 0.9 -1 0.6 -5.8 -1.2z"/>
  <path d="M104 42.8 c0 -0.9 0.5 -2 1 -2.3 2 -1.2 0.9 -2.5 -1.5 -1.9 -4 1 -2.9 -0.4 2.4 -3 l4.8 -2.5 1.1 2.3 c1.3 2.9 -0.3 5.9 -2.8 5.1 -1.2 -0.4 -2.4 0.2 -3.4 1.7 -1.3 1.7 -1.6 1.9 -1.6 0.6z m7 -5.8 c0 -2.2 -0.7 -2.5 -2.9 -1.1 -1.6 1 -0.6 3.1 1.5 3.1 0.8 0 1.4 -0.9 1.4 -2z"/>
  <path d="M20.3 35.6 c-2.3 -1.7 -4.2 -3.5 -4.3 -3.9 0 -1.1 5.7 2.3 7.7 4.6 2.7 2.9 1 2.6 -3.4 -0.7z"/>
  <path d="M96.5 33 c-1.7 -1.9 -1.6 -2 1.5 -4.7 5 -4.2 5.4 -4.3 7.4 -1.5 1.9 2.7 1.9 2.7 0 1 -2.4 -2.1 -5.8 -0.8 -3.6 1.4 1.9 1.9 1.4 3.3 -0.7 1.4 -1.7 -1.5 -1.9 -1.5 -3.1 0 -1.2 1.3 -1.1 1.7 0 2.4 0.8 0.5 1.2 1.1 0.9 1.5 -0.3 0.3 -1.4 -0.4 -2.4 -1.5z"/>
  <path d="M24.3 33.2 c-2.6 -0.3 -3.3 -0.9 -3.8 -3.3 -0.4 -1.7 -0.5 -3.3 -0.2 -3.5 0.3 -0.3 0.8 0.8 1.2 2.5 0.5 2.6 1.1 3 4.3 3.3 2 0.2 3.3 0.5 2.7 0.8 -0.5 0.3 -2.4 0.4 -4.2 0.2z"/>
  <path d="M30.7 29 c-1.7 -4.5 -2.8 -9.1 -2.3 -9.9 0.4 -0.5 2.6 0.2 5.1 1.6 4.9 2.7 7 4.9 3.7 3.9 -1.1 -0.4 -2.3 -0.2 -2.7 0.4 -0.3 0.5 -1.1 1 -1.8 1 -0.8 0 -0.8 -0.3 0.1 -1.2 1.7 -1.7 1.5 -2.3 -1.3 -3.6 -2.9 -1.4 -3 -1.1 -0.9 2.9 0.8 1.7 1.3 3.8 1.1 4.7 -0.3 1.4 -0.5 1.5 -1 0.2z"/>
  <path d="M89.3 23.9 c0.7 -4.2 2.6 -9.3 3.2 -8.7 0.3 0.3 -0.2 2.4 -1 4.8 -0.8 2.4 -1.3 4.5 -1.1 4.8 0.3 0.2 1.9 -0.7 3.6 -2.2 1.7 -1.4 3.7 -2.6 4.3 -2.6 1.3 0 -2 2.8 -6.6 5.5 l-3 1.8 0.6 -3.4z"/>
  <path d="M39.6 18.1 c-1.5 -2.8 -2.2 -5.1 -1.7 -5.1 1.1 0 5.4 9 4.7 9.8 -0.3 0.2 -1.6 -1.9 -3 -4.7z"/>
  <path d="M82 21.6 c0 -1.6 4.3 -9.9 4.7 -8.9 0.4 1.1 -3.3 9.3 -4.2 9.3 -0.3 0 -0.5 -0.2 -0.5 -0.4z"/>
  <path d="M74.3 15.5 c-1 -2.5 -2.1 -4.5 -2.5 -4.5 -0.4 0 -1 1.6 -1.4 3.5 -0.3 1.9 -1 3.5 -1.4 3.5 -0.9 0 0.9 -9.1 2.1 -10.4 0.4 -0.5 1.9 1.4 3.2 4.5 2 4.5 2.6 5.1 3.2 3.4 1.9 -5.4 2.5 -5.9 2 -1.6 -1 7.7 -2.5 8.1 -5.2 1.6z"/>
  <path d="M55 15.4 c-1.3 -3.3 -1.3 -7.1 0 -7.9 0.6 -0.4 1 0.9 1 3.2 0 4.7 1.2 6.6 3.6 6.1 1.5 -0.2 2 -1.4 2.2 -5.1 0.4 -5.9 2.2 -6.2 2.2 -0.4 0 5 -1.3 6.7 -5.2 6.7 -2.1 0 -3.1 -0.6 -3.8 -2.6z"/>
 </g>
</svg>